<svg xmlns="http://www.w3.org/2000/svg" viewBox="0 0 512 512"><title>followus</title><polygon points="152.661 101.735 136.039 161.12 73.507 135.539 116.25 215.024 83.797 232.383 103.586 257.051 68.758 310.954 121.791 291.768 121 318.263 145.538 321.918 139.652 388.994 189.072 342.931 213.61 375.821 227.066 340.19 250.813 358.462 276.142 338.363 289.022 410.265 308.595 343.844 344.215 389.525 348.172 343.844 397.655 380.597 361.628 302.732 421.786 284.459 380.625 264.359 443.242 222.744 374.293 211.37 398.831 169.343 344.215 164.775 338.974 110.791 293.556 141.934 267.435 114.526 234.982 147.416 204.903 120.008 183.532 140.107 152.661 101.735" style="fill:#2ecc71;stroke:#27ae60;stroke-miterlimit:10;stroke-width:9px"/><path d="M166.8252,253.1582l3.4121-.602.68848-.12109q2.96191-.52223,3.41113,2.01758a3.55165,3.55165,0,0,1-.73046,2.897,4.31839,4.31839,0,0,1-2.78223,1.62256l-.68848.12109-4.76269.83985-2.89746,13.57763q-3.03077,14.0647-13.50684,15.9126a12.6104,12.6104,0,0,1-9.69727-1.93311,12.1308,12.1308,0,0,1-5.168-8.26757,16.39569,16.39569,0,0,1,.7207-8.36475,20.4729,20.4729,0,0,1,4.80859-7.61377,27.32741,27.32741,0,0,1,6.93653-4.98682,29.0092,29.0092,0,0,1,8.29394-2.854l3.71192-.76416,1.15918-.23047,2.82714-13.67431.16016-.79249a4.06775,4.06775,0,0,1,1.16211-2.45556,6.8271,6.8271,0,0,1,3.06641-1.10059l13.57226-2.39306q3.67676-.64819,4.13379,1.94531a3.478,3.478,0,0,1-.75195,2.84668,4.33616,4.33616,0,0,1-2.76953,1.62109l-.71485.126-11.29687,1.9917Zm-8.542,8.02491-1.42871.252q-7.83105,1.38135-11.88379,5.77881-4.53369,4.91822-3.64746,9.94531a6.5913,6.5913,0,0,0,2.45117,4.23291A5.40931,5.40931,0,0,0,148.21,282.4917q5.71436-1.00782,7.792-10.73145Z" style="fill:#7f8c8d"/><path d="M190.42578,248.23242a8.75658,8.75658,0,0,1,6.73828,1.3208,8.44662,8.44662,0,0,1,3.56543,5.7544,13.44277,13.44277,0,0,1-.30469,5.85205,12.411,12.411,0,0,1-2.57421,5.04931,8.25256,8.25256,0,0,1-2.58008,1.99756,16.35622,16.35622,0,0,1-4.042,1.13477q-4.3125.76024-6.002-.00635a8.28655,8.28655,0,0,1-4.81445-6.56982,12.16931,12.16931,0,0,1,2.08984-9.34375A11.81566,11.81566,0,0,1,190.42578,248.23242Zm.3584,5.74756a4.71042,4.71042,0,0,0-3.23145,2.56055,6.595,6.595,0,0,0-.8623,4.54443q.54053,3.07032,3.97949,2.46192a3.94806,3.94806,0,0,0,2.877-1.78907,6.939,6.939,0,0,0,.97851-4.97217,3.45288,3.45288,0,0,0-1.30273-2.28076A3.031,3.031,0,0,0,190.78418,253.98Z" style="fill:#7f8c8d"/><path d="M210.31836,260.02783l2.77832-.48974q3.35889-.59253,3.77539,1.7622a3.03051,3.03051,0,0,1-.73437,2.72119,5.40388,5.40388,0,0,1-3.13477,1.48l-4.7627.83985a4.83565,4.83565,0,0,1-3.25878-.37988,3.08668,3.08668,0,0,1-1.5752-2.28663,8.73785,8.73785,0,0,1,.28613-2.85986l6.05078-28.18262.166-.76513q.69287-3.178,3.36621-3.6499a2.68976,2.68976,0,0,1,2.02149.40771,2.39552,2.39552,0,0,1,1.09375,1.63525,5.03917,5.03917,0,0,1-.08008,1.86866l-.16407.76611Z" style="fill:#7f8c8d"/><path d="M224.71094,257.49023l2.77734-.48974q3.36036-.59253,3.77539,1.76172a3.02644,3.02644,0,0,1-.73437,2.72168,5.398,5.398,0,0,1-3.13477,1.48l-4.76172.83984a4.83853,4.83853,0,0,1-3.25879-.37988,3.08959,3.08959,0,0,1-1.57617-2.28711,8.74744,8.74744,0,0,1,.28711-2.85986l6.05078-28.18213.165-.76514q.69433-3.17871,3.36621-3.6499a2.69313,2.69313,0,0,1,2.02246.40771,2.39983,2.39983,0,0,1,1.09375,1.63477,5.05958,5.05958,0,0,1-.08007,1.86865l-.16407.76611Z" style="fill:#7f8c8d"/><path d="M241.64453,239.20117a8.75775,8.75775,0,0,1,6.73926,1.3208,8.44666,8.44666,0,0,1,3.56543,5.7544,13.45513,13.45513,0,0,1-.30469,5.85156,12.41986,12.41986,0,0,1-2.57422,5.04932,8.26155,8.26155,0,0,1-2.58105,1.998,16.349,16.349,0,0,1-4.041,1.13428q-4.314.76026-6.00293-.00586a8.28706,8.28706,0,0,1-4.81347-6.57031,12.17165,12.17165,0,0,1,2.08886-9.34326A11.81566,11.81566,0,0,1,241.64453,239.20117Zm.35938,5.74756a4.70844,4.70844,0,0,0-3.23145,2.56055,6.59522,6.59522,0,0,0-.86328,4.54443q.542,3.07032,3.98047,2.46192a3.94991,3.94991,0,0,0,2.877-1.78907,6.9397,6.9397,0,0,0,.97754-4.97265,3.45018,3.45018,0,0,0-1.30273-2.28077A3.02678,3.02678,0,0,0,242.00391,244.94873Z" style="fill:#7f8c8d"/><path d="M273.042,244.76807l4.79-9.19287.39063-.72364a4.4491,4.4491,0,0,1,3.08007-2.64355,2.67471,2.67471,0,0,1,2.09571.43506,2.73735,2.73735,0,0,1,1.11426,1.83545,6.08513,6.08513,0,0,1-1.03516,3.56494l-7.71875,14.23779q-1.5249,2.80444-3.61426,3.17334a3.85785,3.85785,0,0,1-3.13867-.78223,4.6,4.6,0,0,1-1.751-2.96484,6.37117,6.37117,0,0,1-.09277-.99365l.0332-4.91455-4.02929,8.70214q-1.25977,2.75831-3.32325,3.12256a3.66841,3.66841,0,0,1-3.15332-.86181,5.4663,5.4663,0,0,1-1.76269-3.34522,4.39518,4.39518,0,0,1-.06641-.53418l-1.21387-11.21533a5.762,5.762,0,0,1,.543-3.49219,3.30736,3.30736,0,0,1,2.42969-1.61474q2.4873-.43872,2.96777,2.28711.07911.4497.124,1.01416l.56543,7.53906,4.41113-9.481q1.40332-3.02929,3.88965-3.46777a3.40067,3.40067,0,0,1,2.58887.44385,3.18485,3.18485,0,0,1,1.31445,2.19677c.07129.40528.11523.70557.13183.90332Z" style="fill:#7f8c8d"/><path d="M317.4668,241.13477l3.06836-.541a4.71666,4.71666,0,0,1,2.68847.08594,2.06329,2.06329,0,0,1,1.082,1.6499,3.06589,3.06589,0,0,1-.73144,2.73437,5.3469,5.3469,0,0,1-3.13281,1.49317l-4.73633.835a2.94458,2.94458,0,0,1-3.26563-1.19727,4.65865,4.65865,0,0,1-3.34863,2.36377l-3.8623.68116a5.47125,5.47125,0,0,1-4.11914-.77442,4.92727,4.92727,0,0,1-2.18262-3.40722,8.173,8.173,0,0,1,.165-3.084l2.041-9.47021q.85841-3.9441,3.47754-4.40577a2.80152,2.80152,0,0,1,2.05957.38721,2.36342,2.36342,0,0,1,1.1084,1.646,4.98243,4.98243,0,0,1-.10059,1.8999l-.165.76611-1.57911,7.28809-.15039.8457a4.63416,4.63416,0,0,0-.083,1.0791q.15674,1.199,1.74414.91993,3.27978-.57862,3.89941-3.415l1.86914-8.73243q.82911-3.96606,3.52734-4.44042a2.73555,2.73555,0,0,1,2.03516.40429,2.376,2.376,0,0,1,1.10645,1.63233,7.94445,7.94445,0,0,1-.24024,2.66162Z" style="fill:#7f8c8d"/><path d="M332.40625,231.02686l-.28906,1.30468q-.70167,2.82568-2.84473,3.20215a2.90779,2.90779,0,0,1-2.07715-.41113,2.28674,2.28674,0,0,1-1.166-1.58154,6.03509,6.03509,0,0,1,.334-2.59522l2.25879-7.76318q.84375-2.79492,2.77539-3.13526a2.57755,2.57755,0,0,1,1.8916.36231,2.129,2.129,0,0,1,1.02344,1.46972,7.18023,7.18023,0,0,1,.02246,1.05957,5.33423,5.33423,0,0,0,1.92188,4.24317l1.876,1.82519a10.83654,10.83654,0,0,1,3.39356,5.78467,7.28942,7.28942,0,0,1-1.50489,6.00684,9.05251,9.05251,0,0,1-5.79687,3.32763l-5.5293.9751q-3.36034.59253-3.77051-1.73535a3.05517,3.05517,0,0,1,.74512-2.73633,5.34974,5.34974,0,0,1,3.11914-1.4917l3.06934-.541q3.67822-.64893,3.20605-3.32031a5.23946,5.23946,0,0,0-1.09277-2.18067Z" style="fill:#7f8c8d"/><path d="M349.50586,234.55811a3.76147,3.76147,0,1,1-2.42871,1.54687A3.59333,3.59333,0,0,1,349.50586,234.55811Zm8.13184-23.33887-3.02735,16.71q-.772,4.28466-2.83691,4.647a2.43487,2.43487,0,0,1-1.88672-.41748,2.46439,2.46439,0,0,1-1.042-1.65771,6.86217,6.86217,0,0,1-.0127-1.771l1.80957-18.97754q.356-3.55445,3.13281-4.04443a3.49872,3.49872,0,0,1,2.62891.519,3.13091,3.13091,0,0,1,1.415,2.15039A8.8869,8.8869,0,0,1,357.6377,211.21924Z" style="fill:#7f8c8d"/><path d="M165.8252,252.1582l3.4121-.602.68848-.12109q2.96191-.52223,3.41113,2.01758a3.55165,3.55165,0,0,1-.73046,2.897,4.31839,4.31839,0,0,1-2.78223,1.62256l-.68848.12109-4.76269.83985-2.89746,13.57763q-3.03077,14.0647-13.50684,15.9126a12.6104,12.6104,0,0,1-9.69727-1.93311,12.1308,12.1308,0,0,1-5.168-8.26757,16.39569,16.39569,0,0,1,.7207-8.36475,20.4729,20.4729,0,0,1,4.80859-7.61377,27.32741,27.32741,0,0,1,6.93653-4.98682,29.0092,29.0092,0,0,1,8.29394-2.854l3.71192-.76416,1.15918-.23047,2.82714-13.67431.16016-.79249a4.06775,4.06775,0,0,1,1.16211-2.45556,6.8271,6.8271,0,0,1,3.06641-1.10059l13.57226-2.39306q3.67676-.64819,4.13379,1.94531a3.478,3.478,0,0,1-.75195,2.84668,4.33616,4.33616,0,0,1-2.76953,1.62109l-.71485.126-11.29687,1.9917Zm-8.542,8.02491-1.42871.252q-7.83105,1.38135-11.88379,5.77881-4.53369,4.91822-3.64746,9.94531a6.5913,6.5913,0,0,0,2.45117,4.23291A5.40931,5.40931,0,0,0,147.21,281.4917q5.71436-1.00782,7.792-10.73145Z" style="fill:#ecf0f1"/><path d="M189.42578,247.23242a8.75658,8.75658,0,0,1,6.73828,1.3208,8.44662,8.44662,0,0,1,3.56543,5.7544,13.44277,13.44277,0,0,1-.30469,5.85205,12.411,12.411,0,0,1-2.57421,5.04931,8.25256,8.25256,0,0,1-2.58008,1.99756,16.35622,16.35622,0,0,1-4.042,1.13477q-4.3125.76024-6.002-.00635a8.28655,8.28655,0,0,1-4.81445-6.56982,12.16931,12.16931,0,0,1,2.08984-9.34375A11.81566,11.81566,0,0,1,189.42578,247.23242Zm.3584,5.74756a4.71042,4.71042,0,0,0-3.23145,2.56055,6.595,6.595,0,0,0-.8623,4.54443q.54053,3.07032,3.97949,2.46192a3.94806,3.94806,0,0,0,2.877-1.78907,6.939,6.939,0,0,0,.97851-4.97217,3.45288,3.45288,0,0,0-1.30273-2.28076A3.031,3.031,0,0,0,189.78418,252.98Z" style="fill:#ecf0f1"/><path d="M209.31836,259.02783l2.77832-.48974q3.35889-.59253,3.77539,1.7622a3.03051,3.03051,0,0,1-.73437,2.72119,5.40388,5.40388,0,0,1-3.13477,1.48l-4.7627.83985a4.83565,4.83565,0,0,1-3.25878-.37988,3.08668,3.08668,0,0,1-1.5752-2.28663,8.73785,8.73785,0,0,1,.28613-2.85986l6.05078-28.18262.166-.76513q.69287-3.178,3.36621-3.6499a2.68976,2.68976,0,0,1,2.02149.40771,2.39552,2.39552,0,0,1,1.09375,1.63525,5.03917,5.03917,0,0,1-.08008,1.86866l-.16407.76611Z" style="fill:#ecf0f1"/><path d="M223.71094,256.49023l2.77734-.48974q3.36036-.59253,3.77539,1.76172a3.02644,3.02644,0,0,1-.73437,2.72168,5.398,5.398,0,0,1-3.13477,1.48l-4.76172.83984a4.83853,4.83853,0,0,1-3.25879-.37988,3.08959,3.08959,0,0,1-1.57617-2.28711,8.74744,8.74744,0,0,1,.28711-2.85986l6.05078-28.18213.165-.76514q.69433-3.17871,3.36621-3.6499a2.69313,2.69313,0,0,1,2.02246.40771,2.39983,2.39983,0,0,1,1.09375,1.63477,5.05958,5.05958,0,0,1-.08007,1.86865l-.16407.76611Z" style="fill:#ecf0f1"/><path d="M240.64453,238.20117a8.75775,8.75775,0,0,1,6.73926,1.3208,8.44666,8.44666,0,0,1,3.56543,5.7544,13.45513,13.45513,0,0,1-.30469,5.85156,12.41986,12.41986,0,0,1-2.57422,5.04932,8.26155,8.26155,0,0,1-2.58105,1.998,16.349,16.349,0,0,1-4.041,1.13428q-4.314.76026-6.00293-.00586a8.28706,8.28706,0,0,1-4.81347-6.57031,12.17165,12.17165,0,0,1,2.08886-9.34326A11.81566,11.81566,0,0,1,240.64453,238.20117Zm.35938,5.74756a4.70844,4.70844,0,0,0-3.23145,2.56055,6.59522,6.59522,0,0,0-.86328,4.54443q.542,3.07032,3.98047,2.46192a3.94991,3.94991,0,0,0,2.877-1.78907,6.9397,6.9397,0,0,0,.97754-4.97265,3.45018,3.45018,0,0,0-1.30273-2.28077A3.02678,3.02678,0,0,0,241.00391,243.94873Z" style="fill:#ecf0f1"/><path d="M272.042,243.76807l4.79-9.19287.39063-.72364a4.4491,4.4491,0,0,1,3.08007-2.64355,2.67471,2.67471,0,0,1,2.09571.43506,2.73735,2.73735,0,0,1,1.11426,1.83545,6.08513,6.08513,0,0,1-1.03516,3.56494l-7.71875,14.23779q-1.5249,2.80444-3.61426,3.17334a3.85785,3.85785,0,0,1-3.13867-.78223,4.6,4.6,0,0,1-1.751-2.96484,6.37117,6.37117,0,0,1-.09277-.99365l.0332-4.91455-4.02929,8.70214q-1.25977,2.75831-3.32325,3.12256a3.66841,3.66841,0,0,1-3.15332-.86181,5.4663,5.4663,0,0,1-1.76269-3.34522,4.39518,4.39518,0,0,1-.06641-.53418l-1.21387-11.21533a5.762,5.762,0,0,1,.543-3.49219,3.30736,3.30736,0,0,1,2.42969-1.61474q2.4873-.43872,2.96777,2.28711.07911.4497.124,1.01416l.56543,7.53906,4.41113-9.481q1.40332-3.02929,3.88965-3.46777a3.40067,3.40067,0,0,1,2.58887.44385,3.18485,3.18485,0,0,1,1.31445,2.19677c.07129.40528.11523.70557.13183.90332Z" style="fill:#ecf0f1"/><path d="M316.4668,240.13477l3.06836-.541a4.71666,4.71666,0,0,1,2.68847.08594,2.06329,2.06329,0,0,1,1.082,1.6499,3.06589,3.06589,0,0,1-.73144,2.73437,5.3469,5.3469,0,0,1-3.13281,1.49317l-4.73633.835a2.94458,2.94458,0,0,1-3.26563-1.19727,4.65865,4.65865,0,0,1-3.34863,2.36377l-3.8623.68116a5.47125,5.47125,0,0,1-4.11914-.77442,4.92727,4.92727,0,0,1-2.18262-3.40722,8.173,8.173,0,0,1,.165-3.084l2.041-9.47021q.85841-3.9441,3.47754-4.40577a2.80152,2.80152,0,0,1,2.05957.38721,2.36342,2.36342,0,0,1,1.1084,1.646,4.98243,4.98243,0,0,1-.10059,1.8999l-.165.76611-1.57911,7.28809-.15039.8457a4.63416,4.63416,0,0,0-.083,1.0791q.15674,1.199,1.74414.91993,3.27978-.57862,3.89941-3.415l1.86914-8.73243q.82911-3.96606,3.52734-4.44042a2.73555,2.73555,0,0,1,2.03516.40429,2.376,2.376,0,0,1,1.10645,1.63233,7.94445,7.94445,0,0,1-.24024,2.66162Z" style="fill:#ecf0f1"/><path d="M331.40625,230.02686l-.28906,1.30468q-.70167,2.82568-2.84473,3.20215a2.90779,2.90779,0,0,1-2.07715-.41113,2.28674,2.28674,0,0,1-1.166-1.58154,6.03509,6.03509,0,0,1,.334-2.59522l2.25879-7.76318q.84375-2.79492,2.77539-3.13526a2.57755,2.57755,0,0,1,1.8916.36231,2.129,2.129,0,0,1,1.02344,1.46972,7.18023,7.18023,0,0,1,.02246,1.05957,5.33423,5.33423,0,0,0,1.92188,4.24317l1.876,1.82519a10.83654,10.83654,0,0,1,3.39356,5.78467,7.28942,7.28942,0,0,1-1.50489,6.00684,9.05251,9.05251,0,0,1-5.79687,3.32763l-5.5293.9751q-3.36034.59253-3.77051-1.73535a3.05517,3.05517,0,0,1,.74512-2.73633,5.34974,5.34974,0,0,1,3.11914-1.4917l3.06934-.541q3.67822-.64893,3.20605-3.32031a5.23946,5.23946,0,0,0-1.09277-2.18067Z" style="fill:#ecf0f1"/><path d="M348.50586,233.55811a3.76147,3.76147,0,1,1-2.42871,1.54687A3.59333,3.59333,0,0,1,348.50586,233.55811Zm8.13184-23.33887-3.02735,16.71q-.772,4.28466-2.83691,4.647a2.43487,2.43487,0,0,1-1.88672-.41748,2.46439,2.46439,0,0,1-1.042-1.65771,6.86217,6.86217,0,0,1-.0127-1.771l1.80957-18.97754q.356-3.55445,3.13281-4.04443a3.49872,3.49872,0,0,1,2.62891.519,3.13091,3.13091,0,0,1,1.415,2.15039A8.8869,8.8869,0,0,1,356.6377,210.21924Z" style="fill:#ecf0f1"/></svg>