<svg xmlns="http://www.w3.org/2000/svg" xmlns:xlink="http://www.w3.org/1999/xlink" viewBox="0 0 512 512"><defs><linearGradient id="a" x1="116.47593" y1="413.29887" x2="403.02489" y2="126.74991" gradientUnits="userSpaceOnUse"><stop offset="0" stop-color="#c0392b"/><stop offset="0.85866" stop-color="#c0392b"/><stop offset="1" stop-color="#c0392b"/></linearGradient></defs><title>schaffaeundprofitierae</title><polygon points="160.819 180.508 166.687 120.575 215.304 156.619 235.002 117.641 268.112 149.075 306.67 104.23 332.236 150.332 374.985 124.766 381.691 170.449 422.344 161.229 408.095 196.853 457.969 209.846 423.602 240.441 460.483 265.588 416.058 290.315 454.616 341.447 384.205 335.16 388.471 404.224 333.074 352.344 305.412 390.483 271.884 345.638 222.848 402.218 207.34 362.821 148.246 395.931 129.805 345.638 79.512 363.24 84.96 310.013 38.858 280.676 78.254 247.147 51.012 209.008 104.658 203.978 106.335 162.067 160.819 180.508" style="fill:#e74c3c;stroke-miterlimit:10;stroke-width:10px;stroke:url(#a)"/><path d="M127.56738,238.75342l3.26367,2.89551,1.86475,1.58642a18.53181,18.53181,0,0,1,6.52588,10.87842,15.62739,15.62739,0,0,1-2.09912,11.16992,18.14065,18.14065,0,0,1-13.042,8.67285,15.55244,15.55244,0,0,1-11.81885-2.21,14.374,14.374,0,0,1-6.20361-9.90137q-1.40185-7.9497,4.39355-14.44775,3.07324-3.44312,6.09082-3.97607a3.70542,3.70542,0,0,1,2.71191.44824,3.0504,3.0504,0,0,1,1.396,2.14844q.33765,1.916-1.68018,3.70752l-2.07031,1.83007a10.28343,10.28343,0,0,0-2.72363,4.0708,8.69343,8.69343,0,0,0-.55664,4.64551,7.69314,7.69314,0,0,0,3.34131,5.29053,8.33579,8.33579,0,0,0,6.33008,1.20264,9.5279,9.5279,0,0,0,6.38232-4.19141,9.8099,9.8099,0,0,0,1.69531-7.52441,9.3582,9.3582,0,0,0-2.00879-4.43311,45.25414,45.25414,0,0,0-6.27734-5.56592,27.26,27.26,0,0,1-4.8877-4.644l-7.83447,1.38135q-4.00488.70605-4.49023-2.04981a3.73143,3.73143,0,0,1,.8623-3.33789,6.43954,6.43954,0,0,1,3.769-1.78711l4.96192-.875a13.74967,13.74967,0,0,1,3.57617-10.42871,17.57951,17.57951,0,0,1,10.53809-5.73291,11.89,11.89,0,0,1,8.4707,1.28955,8.98818,8.98818,0,0,1,4.32324,6.44727,9.87936,9.87936,0,0,1-3.3584,9.62793q-2.47924,2.23315-8.54394,3.30078Zm-4.70459-6.32031,6.96436-1.228q5.89014-1.03857,5.28613-4.4624a2.52079,2.52079,0,0,0-1.58252-1.93506,5.73133,5.73133,0,0,0-3.3501-.24707,9.37213,9.37213,0,0,0-5.35888,2.9497A6.20627,6.20627,0,0,0,122.86279,232.43311Z" style="fill:#7f8c8d"/><path d="M161.90771,253.13428l-8.41552,1.4834a7.65875,7.65875,0,0,1-6.355-1.51123,9.70953,9.70953,0,0,1-3.44434-6.21436,13.56522,13.56522,0,0,1,2.08008-10.09082,11.84453,11.84453,0,0,1,8.08594-5.55518,8.18094,8.18094,0,0,1,5.90918.93262,6.47375,6.47375,0,0,1,3.02734,4.61279,5.65085,5.65085,0,0,1-.45215,3.71534,3.39388,3.39388,0,0,1-2.51318,1.86377q-2.67042.47094-3.10987-2.0254-.06664-.37645-.11279-.63867c-.01806-.21484-.04394-.41992-.07763-.61328A1.81052,1.81052,0,0,0,154.169,237.415a4.44586,4.44586,0,0,0-3.08545,2.6084,7.22381,7.22381,0,0,0-.76465,4.74267,3.31371,3.31371,0,0,0,1.77636,2.69336,8.06735,8.06735,0,0,0,4.43116.10059l5.48437-.9668q3.68554-.65038,4.14112,1.93311a3.30392,3.30392,0,0,1-.83741,2.97509A5.88327,5.88327,0,0,1,161.90771,253.13428Z" style="fill:#7f8c8d"/><path d="M178.14844,228.669a11.40173,11.40173,0,0,1,4.72754-2.53956,6.81572,6.81572,0,0,1,4.84472.74707,5.09559,5.09559,0,0,1,2.48291,3.646,8.57446,8.57446,0,0,1-.13867,3.28467l-1.70654,8.14014,3.33691-.58838q3.65625-.64453,4.11182,1.93847a3.32035,3.32035,0,0,1-.80518,2.98438,5.91864,5.91864,0,0,1-3.439,1.623l-5.83252,1.0288a4.75966,4.75966,0,0,1-3.30567-.50879,3.31542,3.31542,0,0,1-1.72021-2.375,7.51764,7.51764,0,0,1,.19629-2.78759l1.51367-7.02735a5.82643,5.82643,0,0,0,.16016-1.97363q-.29151-1.65381-2.49707-1.26465-2.959.52222-4.1001,5.92871l-1.84277,8.55274q-.86793,4.07226-3.88575,4.604a2.982,2.982,0,0,1-2.16455-.39551,2.40538,2.40538,0,0,1-1.16406-1.67968,5.43817,5.43817,0,0,1,.09814-1.9917l.18067-.84082L174.332,213.813q.94776-4.29492,3.8208-4.80225a2.94186,2.94186,0,0,1,2.186.437,2.58291,2.58291,0,0,1,1.19629,1.7793,8.22244,8.22244,0,0,1-.26807,2.88965Z" style="fill:#7f8c8d"/><path d="M216.273,237.0249l3.19189-.5625q3.65625-.64453,4.10694,1.90967a3.34658,3.34658,0,0,1-.81739,3.001,5.87342,5.87342,0,0,1-3.42187,1.63525l-3.71436.65527a3.44043,3.44043,0,0,1-3.73779-1.3457,6.55115,6.55115,0,0,1-3.86474,2.686l-3.30762.58349a6.56039,6.56039,0,0,1-5.55225-1.37011,8.95674,8.95674,0,0,1-3.01025-5.6167,14.95621,14.95621,0,0,1,2.0874-10.646q3.06885-5.07348,7.915-5.92871a6.13487,6.13487,0,0,1,5.88232,1.626,4.46316,4.46316,0,0,1,3.41748-2.84668,3.02288,3.02288,0,0,1,2.27539.43652,2.6939,2.6939,0,0,1,1.209,1.85156,5.37512,5.37512,0,0,1-.12061,2.02637l-.18164.83887Zm-10.50781,2.00293.72558-.12793a3.11933,3.11933,0,0,0,2.82032-2.501l1.146-5.37891a4.59941,4.59941,0,0,0,.11475-1.72559,1.70773,1.70773,0,0,0-1.00977-1.22754,3.01608,3.01608,0,0,0-1.94482-.25537q-2.1189.37355-3.68506,3.19239a8.15021,8.15021,0,0,0-1.102,5.46045Q203.35742,239.4541,205.76514,239.02783Z" style="fill:#7f8c8d"/><path d="M237.44238,216.92676l4.0044-.70606q3.68481-.64965,4.14111,1.93311a3.32229,3.32229,0,0,1-.80566,2.98437,5.92617,5.92617,0,0,1-3.439,1.62354l-5.33887.94141-7.36474,34.41943q-.925,4.2627-3.82569,4.77392a3.13969,3.13969,0,0,1-2.28564-.40576,2.54391,2.54391,0,0,1-1.21289-1.79,8.96528,8.96528,0,0,1,.26807-2.88964l7.05078-32.80811-1.97364.34766q-3.68554.64965-4.12988-1.87452a3.3941,3.3941,0,0,1,.79688-3.02832,5.8642,5.8642,0,0,1,3.43652-1.63818l3.30811-.5835,2.08349-9.73242a14.856,14.856,0,0,1,3.3208-7.2124,11.69581,11.69581,0,0,1,6.61475-3.12549l3.3081-.58349q3.71339-.6548,4.16407,1.89892a3.45178,3.45178,0,0,1-.80371,3.07373,5.86969,5.86969,0,0,1-3.44873,1.65528l-.87012.1538a6.69081,6.69081,0,0,0-3.6709,1.66407,7.41886,7.41886,0,0,0-1.77637,3.7539Z" style="fill:#7f8c8d"/><path d="M257.40625,213.40674l4.00488-.70606q3.68409-.65038,4.14063,1.93262a3.32365,3.32365,0,0,1-.80567,2.98486,5.92614,5.92614,0,0,1-3.439,1.62354l-5.33887.94141L248.604,254.60205q-.92432,4.2627-3.82568,4.77393a3.14037,3.14037,0,0,1-2.28613-.40528,2.54632,2.54632,0,0,1-1.21289-1.79,8.96465,8.96465,0,0,1,.26806-2.88964l7.05078-32.8086-1.97363.34815q-3.68407.64965-4.12939-1.875a3.3915,3.3915,0,0,1,.79736-3.02832,5.8623,5.8623,0,0,1,3.436-1.6377l3.30761-.5835,2.084-9.73291a14.8538,14.8538,0,0,1,3.32031-7.21191,11.6961,11.6961,0,0,1,6.61475-3.126l3.3081-.583q3.71412-.65479,4.16455,1.89843a3.4529,3.4529,0,0,1-.8042,3.07422,5.87251,5.87251,0,0,1-3.44873,1.65528l-.87011.15332a6.69923,6.69923,0,0,0-3.6709,1.66406,7.42089,7.42089,0,0,0-1.77637,3.7539Z" style="fill:#7f8c8d"/><path d="M283.9707,225.08838l3.1919-.563q3.65625-.64527,4.10644,1.90967a3.34772,3.34772,0,0,1-.81689,3.001,5.87379,5.87379,0,0,1-3.42236,1.63574l-3.71387.65478a3.43936,3.43936,0,0,1-3.73779-1.3457,6.55328,6.55328,0,0,1-3.86475,2.686l-3.30811.583a6.55758,6.55758,0,0,1-5.55224-1.37011,8.95607,8.95607,0,0,1-3.00977-5.61622,14.95417,14.95417,0,0,1,2.08692-10.6455q3.06883-5.07423,7.91552-5.9292a6.133,6.133,0,0,1,5.88184,1.62646,4.46437,4.46437,0,0,1,3.41748-2.84717,3.02631,3.02631,0,0,1,2.27588.43653,2.69707,2.69707,0,0,1,1.20947,1.85205,5.38367,5.38367,0,0,1-.12109,2.02588l-.18164.83838Zm-13.30615-24.73047a3.99235,3.99235,0,1,1,1.38623,7.86328,3.99227,3.99227,0,0,1-1.38623-7.86328Zm2.79785,26.73291.72559-.12793a3.11984,3.11984,0,0,0,2.82031-2.501l1.146-5.37841a4.5921,4.5921,0,0,0,.11474-1.72608,1.71016,1.71016,0,0,0-1.00976-1.228,3.02092,3.02092,0,0,0-1.94434-.25488q-2.1189.37355-3.68555,3.19238a8.15029,8.15029,0,0,0-1.10205,5.46045Q271.0547,227.5171,273.4624,227.09082Zm8.28662-28.687a3.97323,3.97323,0,0,1,4.60743,3.22607,3.99263,3.99263,0,1,1-7.86377,1.38672,3.97515,3.97515,0,0,1,3.25634-4.61279Z" style="fill:#7f8c8d"/><path d="M327.23535,217.45947l3.36621-.59375a5.1804,5.1804,0,0,1,2.94873.09424,2.26651,2.26651,0,0,1,1.18653,1.81055,3.3614,3.3614,0,0,1-.80274,2.99853,5.861,5.861,0,0,1-3.43652,1.6377l-5.19385.916a3.23088,3.23088,0,0,1-3.58252-1.3125,5.10605,5.10605,0,0,1-3.67187,2.5918l-4.23633.74707a6.00934,6.00934,0,0,1-4.51807-.84766,5.40625,5.40625,0,0,1-2.394-3.73779,8.96624,8.96624,0,0,1,.18115-3.38281l2.23779-10.38721q.94263-4.32569,3.81543-4.83252a3.06906,3.06906,0,0,1,2.25879.4253,2.59328,2.59328,0,0,1,1.21582,1.80468,5.45757,5.45757,0,0,1-.11084,2.0835l-.18115.84033-1.73193,7.99463-.166.92627a5.13078,5.13078,0,0,0-.09033,1.18311q.17212,1.31689,1.91309,1.00976,3.59765-.63427,4.27587-3.74658l2.05127-9.57715q.90894-4.34692,3.86914-4.87109a3.005,3.005,0,0,1,2.23243.44433,2.61124,2.61124,0,0,1,1.21289,1.791,8.67588,8.67588,0,0,1-.26319,2.918Z" style="fill:#7f8c8d"/><path d="M168.65674,323.1416,164.36768,343.106q-.88623,4.13525-3.9043,4.668a2.86258,2.86258,0,0,1-2.12305-.41895,2.46932,2.46932,0,0,1-1.15234-1.69727,8.50527,8.50527,0,0,1,.24512-2.85546l7.90771-36.93848a3.8308,3.8308,0,0,1,3.25342-3.2666,3.3261,3.3261,0,0,1,3.209,1.22949,6.67142,6.67142,0,0,1,4.5835-3.02246,6.12014,6.12014,0,0,1,5.32519,1.44043,9.4939,9.4939,0,0,1,2.94385,5.749,16.10222,16.10222,0,0,1-2.38867,12.41895,8.18782,8.18782,0,0,1-2.62988,2.5581,13.43214,13.43214,0,0,1-4.19776,1.30811,13.89473,13.89473,0,0,1-4.14892.3125A5.8097,5.8097,0,0,1,168.65674,323.1416Zm1.33545-6.34033a4.43191,4.43191,0,0,0,1.66992,1.41113,4.38058,4.38058,0,0,0,2.14111.01221,3.86459,3.86459,0,0,0,2.94971-2.10693,10.62845,10.62845,0,0,0,1.2251-6.79737q-.49659-2.814-3.166-2.34375-2.93115.51709-3.60888,4.13623c-.05274.26953-.0918.4961-.11963.67969Z" style="fill:#7f8c8d"/><path d="M193.16064,304.81787l-.55566,2.61133q-.76245,3.48707-2.90918,3.86377a3.17725,3.17725,0,0,1-2.31494-.39942,2.55291,2.55291,0,0,1-1.21338-1.78955,7.401,7.401,0,0,1,.23975-2.37744l1.85107-8.67383q.6731-3.13989,2.84961-3.52441a2.48406,2.48406,0,0,1,2.99805,1.56592l.39111.8584q.29662.6665.67578.77783a4.99163,4.99163,0,0,0,1.74268-.127l6.79-1.19727q3.80127-.67017,4.27246,1.99854.64965,3.687-4.167,4.53515l-.26856.34717q-3.83643,5.22437-3.41113,7.63184.4248,2.40966,3.09375,1.9375l3.65625-.64454q3.68481-.64965,4.13623,1.90479a3.3527,3.3527,0,0,1-.80029,3.01269,5.92768,5.92768,0,0,1-3.439,1.62354l-5.6875,1.00293a6.25118,6.25118,0,0,1-5.09717-1.16553,7.481,7.481,0,0,1-2.75879-4.86914,8.65692,8.65692,0,0,1,.291-4.1206,24.60981,24.60981,0,0,1,2.65332-5.315Z" style="fill:#7f8c8d"/><path d="M222.40869,292.68945a9.59907,9.59907,0,0,1,7.39111,1.44971,9.2618,9.2618,0,0,1,3.91016,6.31152,14.73971,14.73971,0,0,1-.33447,6.417,13.61939,13.61939,0,0,1-2.82324,5.53906,9.03267,9.03267,0,0,1-2.83057,2.189,17.86423,17.86423,0,0,1-4.43213,1.24561q-4.73.83423-6.5835-.00586a9.08916,9.08916,0,0,1-5.28027-7.207,13.34734,13.34734,0,0,1,2.29248-10.248A12.96039,12.96039,0,0,1,222.40869,292.68945Zm.39307,6.30371a5.1604,5.1604,0,0,0-3.54346,2.8086,7.23017,7.23017,0,0,0-.94678,4.98388q.59327,3.36622,4.36573,2.70118a4.33151,4.33151,0,0,0,3.15478-1.96192,7.61628,7.61628,0,0,0,1.07276-5.45605,3.79143,3.79143,0,0,0-1.42823-2.5A3.32355,3.32355,0,0,0,222.80176,298.99316Z" style="fill:#7f8c8d"/><path d="M249.66943,288.30127l4.00391-.70606q3.68555-.64892,4.14111,1.9336a3.31917,3.31917,0,0,1-.80517,2.9834,5.92062,5.92062,0,0,1-3.439,1.624l-5.33886.9419-7.36475,34.41845q-.92505,4.26343-3.82617,4.77442a3.13877,3.13877,0,0,1-2.28516-.40528,2.54847,2.54847,0,0,1-1.21338-1.79,8.96161,8.96161,0,0,1,.26856-2.89062l7.05029-32.80762-1.97314.34815q-3.68556.64965-4.13038-1.87452a3.39448,3.39448,0,0,1,.79737-3.0288,5.85513,5.85513,0,0,1,3.436-1.6377l3.3086-.5835,2.083-9.73291a14.84973,14.84973,0,0,1,3.32129-7.21191,11.69462,11.69462,0,0,1,6.61426-3.126l3.30811-.58349q3.71337-.6548,4.16455,1.898a3.45161,3.45161,0,0,1-.80371,3.07422,5.86837,5.86837,0,0,1-3.44873,1.65527l-.87061.15332a6.69657,6.69657,0,0,0-3.6709,1.66553,7.41482,7.41482,0,0,0-1.77637,3.7539Z" style="fill:#7f8c8d"/><path d="M264.481,302.05518l3.27929-.57813q3.65625-.64453,4.11133,1.93848a3.32148,3.32148,0,0,1-.80469,2.98437,5.93071,5.93071,0,0,1-3.439,1.62354l-4.61377.81347a6.91382,6.91382,0,0,1-4.20264-.33545,3.36218,3.36218,0,0,1-1.96728-2.58593,6.8499,6.8499,0,0,1,.17969-2.54541l2.71045-12.62451.17626-.86866q.75587-3.51489,3.71582-4.03662a3.05518,3.05518,0,0,1,2.24756.44141,2.59008,2.59008,0,0,1,1.228,1.78857,8.67291,8.67291,0,0,1-.28271,2.98194Zm-.60059-25.8042a4.07429,4.07429,0,1,1-2.65039,1.67871A3.95523,3.95523,0,0,1,263.88037,276.251Z" style="fill:#7f8c8d"/><path d="M284.229,282.20752l.89942-.1582q3.68554-.6504,4.14062,1.93261a3.30686,3.30686,0,0,1-.81933,2.98633,5.93788,5.93788,0,0,1-3.42432,1.62207l-2.11816.373-2.20557,10.23193,3.25-.57324q3.68481-.64967,4.14111,1.93311a3.32131,3.32131,0,0,1-.80517,2.98437,5.92476,5.92476,0,0,1-3.43848,1.62354l-5.19433.916a5.59676,5.59676,0,0,1-3.67627-.39892,3.37286,3.37286,0,0,1-1.77686-2.52832,6.587,6.587,0,0,1,.10254-2.47217l.32617-1.37451,1.93506-9.04688-.43506.07666q-3.25049.57276-3.69433-1.95166a3.39192,3.39192,0,0,1,.79687-3.02832,5.8553,5.8553,0,0,1,3.43652-1.63769l1.334-.23536.86816-4.07226.18115-.84033q.79468-3.46217,3.72657-3.978a2.9453,2.9453,0,0,1,2.18652.437,2.58338,2.58338,0,0,1,1.1958,1.77881,7.27943,7.27943,0,0,1-.26318,2.91894Z" style="fill:#7f8c8d"/><path d="M298.46045,296.064l3.27881-.57812q3.65625-.64527,4.11181,1.938a3.32245,3.32245,0,0,1-.80468,2.98486,5.93338,5.93338,0,0,1-3.439,1.62305l-4.61377.81347a6.91741,6.91741,0,0,1-4.20263-.335,3.3627,3.3627,0,0,1-1.96729-2.58642,6.83964,6.83964,0,0,1,.17969-2.54541l2.71-12.624.17627-.86914q.75659-3.51489,3.71631-4.03613a3.04893,3.04893,0,0,1,2.24707.44141,2.58821,2.58821,0,0,1,1.228,1.78808,8.66866,8.66866,0,0,1-.28222,2.98194Zm-.60059-25.80468A4.07413,4.07413,0,1,1,295.209,271.938,3.95724,3.95724,0,0,1,297.85986,270.25928Z" style="fill:#7f8c8d"/><path d="M313.0791,291.24268q.38306,2.17529,3.6626,1.59765l8.61768-1.51953q3.65625-.64453,4.11181,1.93848a3.32285,3.32285,0,0,1-.80469,2.98437,5.926,5.926,0,0,1-3.439,1.623l-8.21191,1.44824q-4.585.80859-7.37745-1.03223-2.79345-1.8413-3.561-6.19531a13.89943,13.89943,0,0,1,2.08349-10.32959,12.09009,12.09009,0,0,1,8.293-5.65088,9.16774,9.16774,0,0,1,6.459.91114,6.6743,6.6743,0,0,1,3.23,4.83007,6.37517,6.37517,0,0,1-2.16846,6.36573,10.50583,10.50583,0,0,1-5.09131,2.00537Zm.46143-5.52686,3.1914-.563q3.10548-.54711,2.77784-1.896-.35816-1.52271-2.27393-1.18409Q314.56689,282.543,313.54053,285.71582Z" style="fill:#7f8c8d"/><path d="M335.69482,279.68506l-.55664,2.61133q-.76245,3.48705-2.90918,3.86425a3.17892,3.17892,0,0,1-2.31445-.3999,2.55111,2.55111,0,0,1-1.21387-1.78955,7.41552,7.41552,0,0,1,.23975-2.37744l1.85156-8.67383q.67236-3.13989,2.84912-3.52392a2.48511,2.48511,0,0,1,2.999,1.56543l.39013.85839q.29738.66651.67627.77832a4.99349,4.99349,0,0,0,1.74219-.12744l6.79-1.19726q3.80127-.67017,4.27246,1.99853.64966,3.687-4.167,4.53516l-.26807.34717q-3.83569,5.22436-3.41162,7.63183.4248,2.40967,3.09424,1.9375l3.65576-.64453q3.68554-.64965,4.13623,1.90479a3.3513,3.3513,0,0,1-.80029,3.01269,5.92473,5.92473,0,0,1-3.43848,1.62354l-5.6875,1.00293a6.24768,6.24768,0,0,1-5.09717-1.16553,7.481,7.481,0,0,1-2.75879-4.86914,8.64518,8.64518,0,0,1,.291-4.12061,24.61527,24.61527,0,0,1,2.65283-5.31494Z" style="fill:#7f8c8d"/><path d="M374.1958,282.70947l3.1919-.5625q3.65625-.64526,4.10693,1.90967a3.34774,3.34774,0,0,1-.81738,3.00049,5.87517,5.87517,0,0,1-3.42188,1.63574l-3.71387.65479a3.44015,3.44015,0,0,1-3.73779-1.34571,6.55654,6.55654,0,0,1-3.86475,2.68653l-3.3081.583a6.55759,6.55759,0,0,1-5.55225-1.37011,8.95523,8.95523,0,0,1-3.00976-5.61768,14.94964,14.94964,0,0,1,2.08691-10.64453q3.06885-5.07422,7.91553-5.92871a6.13123,6.13123,0,0,1,5.88135,1.625,4.46406,4.46406,0,0,1,3.418-2.8457,3.02261,3.02261,0,0,1,2.27587.436,2.69455,2.69455,0,0,1,1.209,1.85108,5.376,5.376,0,0,1-.12109,2.02636l-.18116.83936Zm-13.30615-24.73a3.97444,3.97444,0,1,1-2.56934,1.63526A3.86645,3.86645,0,0,1,360.88965,257.97949ZM363.688,284.7124l.72558-.12793a3.12131,3.12131,0,0,0,2.82081-2.502l1.1455-5.37793a4.6041,4.6041,0,0,0,.11524-1.72607,1.71181,1.71181,0,0,0-1.01026-1.22852,3.0181,3.0181,0,0,0-1.94433-.25537q-2.1189.37427-3.686,3.19336a8.15108,8.15108,0,0,0-1.10156,5.46094Q361.27954,285.1372,363.688,284.7124Zm8.28613-28.6875a3.97517,3.97517,0,1,1-2.59814,1.64063A3.83265,3.83265,0,0,1,371.97412,256.0249Z" style="fill:#7f8c8d"/><path d="M388.41455,279.186a4.1253,4.1253,0,1,1-2.6626,1.69628A3.93658,3.93658,0,0,1,388.41455,279.186Zm8.91992-25.59864-3.32031,18.32715q-.84814,4.69776-3.11035,5.09717a2.67325,2.67325,0,0,1-2.0708-.45752,2.70513,2.70513,0,0,1-1.14356-1.81836,7.59219,7.59219,0,0,1-.01318-1.94336l1.98437-20.81445q.39039-3.898,3.437-4.43555a3.83254,3.83254,0,0,1,2.88232.56934,3.437,3.437,0,0,1,1.55371,2.35937A9.784,9.784,0,0,1,397.33447,253.5874Z" style="fill:#7f8c8d"/><path d="M126.669,237.02734l3.26367,2.89551,1.86523,1.58643a18.531,18.531,0,0,1,6.52539,10.87842,15.62716,15.62716,0,0,1-2.09863,11.16992,18.14162,18.14162,0,0,1-13.042,8.67285,15.55413,15.55413,0,0,1-11.81934-2.21,14.37348,14.37348,0,0,1-6.20312-9.90137q-1.40186-7.9497,4.39355-14.44775,3.07325-3.44312,6.09082-3.97608a3.70592,3.70592,0,0,1,2.71192.44824,3.05139,3.05139,0,0,1,1.3955,2.14844q.33839,1.916-1.67968,3.70752l-2.07032,1.83008a10.28329,10.28329,0,0,0-2.72363,4.0708,8.69342,8.69342,0,0,0-.55664,4.64551,7.69422,7.69422,0,0,0,3.34082,5.29053,8.33666,8.33666,0,0,0,6.33008,1.20263,9.52994,9.52994,0,0,0,6.38281-4.1914,9.81193,9.81193,0,0,0,1.69531-7.52442,9.3676,9.3676,0,0,0-2.00879-4.4331,45.25414,45.25414,0,0,0-6.27734-5.56592,27.24341,27.24341,0,0,1-4.88769-4.644l-7.835,1.38134q-4.00488.70606-4.49023-2.0498a3.73143,3.73143,0,0,1,.8623-3.33789,6.441,6.441,0,0,1,3.76954-1.78711l4.96191-.875A13.74779,13.74779,0,0,1,118.1416,221.583a17.57675,17.57675,0,0,1,10.53809-5.73291,11.89088,11.89088,0,0,1,8.4707,1.28955,8.98818,8.98818,0,0,1,4.32324,6.44726,9.88039,9.88039,0,0,1-3.3584,9.62793q-2.48,2.23315-8.54394,3.30079Zm-4.70411-6.32031,6.96387-1.228q5.89014-1.03857,5.28613-4.4624a2.51923,2.51923,0,0,0-1.582-1.93506,5.73338,5.73338,0,0,0-3.35058-.24707,9.371,9.371,0,0,0-5.3584,2.94971A6.20625,6.20625,0,0,0,121.96484,230.707Z" style="fill:#ecf0f1"/><path d="M161.00977,251.4082l-8.416,1.4834a7.65806,7.65806,0,0,1-6.35449-1.51123,9.7095,9.7095,0,0,1-3.44434-6.21435A13.56521,13.56521,0,0,1,144.875,235.0752a11.84342,11.84342,0,0,1,8.08594-5.55518,8.18176,8.18176,0,0,1,5.90918.93262,6.47517,6.47517,0,0,1,3.02734,4.61279,5.65081,5.65081,0,0,1-.45215,3.71533,3.39377,3.39377,0,0,1-2.51367,1.86377q-2.6704.471-3.10937-2.02539c-.04493-.251-.082-.46387-.11329-.63867-.01757-.21484-.04394-.41992-.07714-.61328a1.81092,1.81092,0,0,0-2.36133-1.67823,4.4452,4.4452,0,0,0-3.085,2.6084,7.22383,7.22383,0,0,0-.76465,4.74268,3.31269,3.31269,0,0,0,1.77637,2.69336,8.06584,8.06584,0,0,0,4.43066.10058l5.48437-.96679q3.68556-.6504,4.14161,1.9331a3.30554,3.30554,0,0,1-.83789,2.9751A5.88333,5.88333,0,0,1,161.00977,251.4082Z" style="fill:#ecf0f1"/><path d="M177.25,226.94287a11.40444,11.40444,0,0,1,4.72754-2.53955,6.8157,6.8157,0,0,1,4.84473.74707,5.09481,5.09481,0,0,1,2.48339,3.646,8.5744,8.5744,0,0,1-.13867,3.28466l-1.707,8.14014,3.33692-.58838q3.65625-.64452,4.1123,1.93848a3.32057,3.32057,0,0,1-.80566,2.98437,5.91708,5.91708,0,0,1-3.43848,1.62305l-5.833,1.02881a4.75968,4.75968,0,0,1-3.30566-.50879,3.31608,3.31608,0,0,1-1.71973-2.375,7.51769,7.51769,0,0,1,.19629-2.7876l1.51367-7.02734a5.82644,5.82644,0,0,0,.16016-1.97363q-.29151-1.65381-2.49707-1.26465-2.959.52221-4.10059,5.92871l-1.84277,8.55273q-.8672,4.07228-3.88574,4.604a2.98076,2.98076,0,0,1-2.16407-.39551,2.40248,2.40248,0,0,1-1.16406-1.67969,5.43652,5.43652,0,0,1,.09766-1.9917l.18066-.84082,7.13281-33.36133q.94776-4.29492,3.82129-4.80224a2.94019,2.94019,0,0,1,2.18555.437,2.57981,2.57981,0,0,1,1.19629,1.7793,8.21929,8.21929,0,0,1-.26758,2.88965Z" style="fill:#ecf0f1"/><path d="M215.375,235.29883l3.19141-.5625q3.65625-.64454,4.10742,1.90967a3.34656,3.34656,0,0,1-.81738,3.001,5.875,5.875,0,0,1-3.42188,1.63526l-3.71484.65527a3.44,3.44,0,0,1-3.73731-1.3457,6.552,6.552,0,0,1-3.86523,2.686l-3.30762.5835a6.55976,6.55976,0,0,1-5.55176-1.37012,8.9595,8.9595,0,0,1-3.01074-5.6167,14.959,14.959,0,0,1,2.08789-10.646q3.06885-5.07349,7.915-5.92872a6.13433,6.13433,0,0,1,5.88184,1.626,4.46384,4.46384,0,0,1,3.418-2.84668,3.02336,3.02336,0,0,1,2.2754.43653,2.6939,2.6939,0,0,1,1.209,1.85156,5.37659,5.37659,0,0,1-.12109,2.02636l-.18164.83887Zm-10.50781,2.00293.72558-.12793a3.11934,3.11934,0,0,0,2.82032-2.501l1.1455-5.3789a4.6012,4.6012,0,0,0,.11524-1.72559,1.70773,1.70773,0,0,0-1.00977-1.22754,3.017,3.017,0,0,0-1.94531-.25537q-2.11817.37353-3.68457,3.19238a8.15068,8.15068,0,0,0-1.10254,5.46045Q202.459,237.728,204.86719,237.30176Z" style="fill:#ecf0f1"/><path d="M236.544,215.20068l4.00488-.70605q3.68408-.64966,4.14062,1.9331a3.32094,3.32094,0,0,1-.80566,2.98438,5.92312,5.92312,0,0,1-3.43848,1.62353l-5.33886.94141-7.36524,34.41943q-.92432,4.2627-3.82519,4.77393a3.141,3.141,0,0,1-2.28614-.40576,2.54539,2.54539,0,0,1-1.21289-1.79,8.98416,8.98416,0,0,1,.26856-2.88965l7.05078-32.8081-1.97363.34765q-3.68556.64966-4.12989-1.87451a3.39269,3.39269,0,0,1,.79688-3.02832,5.86414,5.86414,0,0,1,3.43652-1.63818l3.30762-.5835,2.084-9.73242a14.85571,14.85571,0,0,1,3.32032-7.2124,11.69732,11.69732,0,0,1,6.61523-3.12549l3.30762-.5835q3.71337-.65478,4.16406,1.89893a3.45038,3.45038,0,0,1-.80371,3.07373,5.86822,5.86822,0,0,1-3.44824,1.65527l-.87012.15381a6.68907,6.68907,0,0,0-3.6709,1.66406,7.41489,7.41489,0,0,0-1.77637,3.75391Z" style="fill:#ecf0f1"/><path d="M256.50781,211.68066l4.00489-.706q3.68408-.65038,4.14062,1.93262a3.32232,3.32232,0,0,1-.80566,2.98486,5.92319,5.92319,0,0,1-3.43848,1.62354l-5.33887.9414L247.70605,252.876q-.92431,4.26269-3.82617,4.77392a3.14086,3.14086,0,0,1-2.28613-.40527,2.54927,2.54927,0,0,1-1.21289-1.79,8.98353,8.98353,0,0,1,.26855-2.88965l7.05079-32.80859-1.97364.34814q-3.68408.64966-4.12988-1.875a3.3931,3.3931,0,0,1,.79785-3.02832,5.86082,5.86082,0,0,1,3.43555-1.63769l3.30762-.5835,2.084-9.73291a14.86264,14.86264,0,0,1,3.32031-7.21191,11.69765,11.69765,0,0,1,6.61524-3.126l3.30761-.583q3.71486-.65478,4.165,1.89844a3.45174,3.45174,0,0,1-.80468,3.07422,5.87107,5.87107,0,0,1-3.44825,1.65527l-.87011.15332a6.69923,6.69923,0,0,0-3.6709,1.66406,7.41691,7.41691,0,0,0-1.77637,3.75391Z" style="fill:#ecf0f1"/><path d="M283.07227,223.3623l3.19238-.563q3.65625-.64527,4.10644,1.90966a3.34657,3.34657,0,0,1-.81738,3.001,5.87222,5.87222,0,0,1-3.42187,1.63574l-3.71387.65479a3.44012,3.44012,0,0,1-3.73828-1.3457,6.55244,6.55244,0,0,1-3.86426,2.686l-3.30859.583a6.55655,6.55655,0,0,1-5.55176-1.37012,8.95607,8.95607,0,0,1-3.00977-5.61621,14.95173,14.95173,0,0,1,2.08692-10.64551q3.06885-5.07422,7.915-5.9292a6.13262,6.13262,0,0,1,5.88183,1.62647,4.465,4.465,0,0,1,3.418-2.84717,3.02551,3.02551,0,0,1,2.27539.43652,2.69927,2.69927,0,0,1,1.21,1.852,5.39386,5.39386,0,0,1-.12109,2.02588l-.18164.83838ZM269.7666,198.63184a3.99231,3.99231,0,1,1,1.38574,7.86328,3.82814,3.82814,0,0,1-2.97265-.65674,3.99285,3.99285,0,0,1,1.58691-7.20654Zm2.79785,26.73291.72559-.12793a3.11986,3.11986,0,0,0,2.82031-2.501l1.14551-5.37842a4.60406,4.60406,0,0,0,.11523-1.72607,1.71014,1.71014,0,0,0-1.00976-1.228,3.02124,3.02124,0,0,0-1.94434-.25488q-2.11962.37353-3.68554,3.19238a8.15062,8.15062,0,0,0-1.10254,5.46045Q270.15625,225.791,272.56445,225.36475Zm8.28614-28.687a3.97529,3.97529,0,1,1-2.59766,1.64014A3.83161,3.83161,0,0,1,280.85059,196.67773Z" style="fill:#ecf0f1"/><path d="M326.33691,215.7334l3.36622-.59375a5.18169,5.18169,0,0,1,2.94921.09424,2.26756,2.26756,0,0,1,1.18653,1.81054,3.3614,3.3614,0,0,1-.80274,2.99854,5.861,5.861,0,0,1-3.43652,1.63769l-5.19434.916a3.23018,3.23018,0,0,1-3.582-1.3125,5.107,5.107,0,0,1-3.67187,2.5918l-4.23633.74707a6.01018,6.01018,0,0,1-4.51856-.84766,5.40568,5.40568,0,0,1-2.39355-3.73779,8.975,8.975,0,0,1,.18066-3.38281l2.23829-10.38721q.94188-4.32569,3.81542-4.83252a3.069,3.069,0,0,1,2.25879.42529,2.59325,2.59325,0,0,1,1.21582,1.80469,5.44917,5.44917,0,0,1-.11132,2.0835l-.18067.84033-1.73242,7.99463-.166.92627a5.12368,5.12368,0,0,0-.08984,1.1831q.17139,1.31689,1.91309,1.00977,3.59764-.63428,4.27539-3.74659l2.05176-9.57714q.90819-4.34692,3.86914-4.8711a3.0054,3.0054,0,0,1,2.23242.44434,2.61274,2.61274,0,0,1,1.21289,1.791,8.67948,8.67948,0,0,1-.26367,2.918Z" style="fill:#ecf0f1"/><path d="M167.75879,321.41553l-4.28906,19.96435q-.88623,4.13526-3.9043,4.668a2.86213,2.86213,0,0,1-2.123-.41894,2.46784,2.46784,0,0,1-1.15234-1.69727,8.50533,8.50533,0,0,1,.24512-2.85547l7.90722-36.93847a3.83184,3.83184,0,0,1,3.25391-3.26661,3.32649,3.32649,0,0,1,3.209,1.2295,6.67145,6.67145,0,0,1,4.583-3.02246,6.11973,6.11973,0,0,1,5.3252,1.44042,9.49434,9.49434,0,0,1,2.94433,5.749,16.10219,16.10219,0,0,1-2.38867,12.41894,8.18786,8.18786,0,0,1-2.62988,2.55811,13.43116,13.43116,0,0,1-4.19824,1.3081,13.8907,13.8907,0,0,1-4.14844.3125A5.80726,5.80726,0,0,1,167.75879,321.41553Zm1.335-6.34033a4.43929,4.43929,0,0,0,1.66992,1.41113,4.383,4.383,0,0,0,2.1416.01221,3.86293,3.86293,0,0,0,2.94922-2.10694,10.62888,10.62888,0,0,0,1.22559-6.79736q-.49659-2.814-3.166-2.34375-2.93115.51708-3.60937,4.13623c-.05274.26953-.0918.49609-.11914.67969Z" style="fill:#ecf0f1"/><path d="M192.2627,303.0918l-.55567,2.61133q-.76318,3.48705-2.90918,3.86376a3.179,3.179,0,0,1-2.31543-.39941,2.55232,2.55232,0,0,1-1.21289-1.78955,7.41086,7.41086,0,0,1,.23926-2.37744l1.85156-8.67383q.67236-3.13989,2.84961-3.52441a2.484,2.484,0,0,1,2.99805,1.56591l.39062.8584q.29737.66651.67578.77783a4.99377,4.99377,0,0,0,1.74317-.127l6.79-1.19726q3.80127-.67017,4.27246,1.99853.64893,3.687-4.167,4.53516l-.26856.34717q-3.83643,5.22436-3.41113,7.63183.4248,2.40967,3.09375,1.9375l3.65625-.64453q3.68408-.64966,4.13574,1.90479a3.35113,3.35113,0,0,1-.7998,3.01269,5.92928,5.92928,0,0,1-3.43946,1.62354l-5.6875,1.00293a6.2497,6.2497,0,0,1-5.09668-1.16553,7.481,7.481,0,0,1-2.75879-4.86914,8.657,8.657,0,0,1,.291-4.12061,24.56446,24.56446,0,0,1,2.65332-5.31494Z" style="fill:#ecf0f1"/><path d="M221.51074,290.96338a9.59834,9.59834,0,0,1,7.39063,1.44971,9.2601,9.2601,0,0,1,3.91015,6.31152,14.73934,14.73934,0,0,1-.334,6.417,13.61932,13.61932,0,0,1-2.82324,5.53906,9.03412,9.03412,0,0,1-2.83106,2.189,17.85935,17.85935,0,0,1-4.43164,1.2456q-4.73.83424-6.584-.00585a9.09113,9.09113,0,0,1-5.28028-7.207,13.34965,13.34965,0,0,1,2.293-10.248A12.96036,12.96036,0,0,1,221.51074,290.96338Zm.39258,6.30371a5.15866,5.15866,0,0,0-3.543,2.80859,7.23046,7.23046,0,0,0-.94726,4.98389q.59325,3.36621,4.36621,2.70117a4.32956,4.32956,0,0,0,3.15429-1.96191,7.619,7.619,0,0,0,1.07325-5.45606,3.792,3.792,0,0,0-1.42871-2.5A3.32278,3.32278,0,0,0,221.90332,297.26709Z" style="fill:#ecf0f1"/><path d="M248.77148,286.5752l4.00391-.70606q3.68555-.64893,4.14063,1.93359a3.319,3.319,0,0,1-.80469,2.9834,5.92064,5.92064,0,0,1-3.43945,1.624l-5.33887.94189-7.36426,34.41846q-.92578,4.26342-3.82617,4.77441a3.13834,3.13834,0,0,1-2.28516-.40527,2.55056,2.55056,0,0,1-1.21387-1.79,8.99082,8.99082,0,0,1,.26856-2.89063l7.05078-32.80761-1.97363.34814q-3.68554.64967-4.12988-1.87451a3.3929,3.3929,0,0,1,.79687-3.02881,5.85817,5.85817,0,0,1,3.43652-1.63769l3.3086-.5835,2.083-9.73291a14.84532,14.84532,0,0,1,3.32128-7.21191,11.69146,11.69146,0,0,1,6.61426-3.126l3.30762-.5835q3.71339-.65478,4.165,1.89795a3.453,3.453,0,0,1-.80371,3.07422,5.86827,5.86827,0,0,1-3.44922,1.65527l-.87012.15332a6.69664,6.69664,0,0,0-3.6709,1.66553,7.41477,7.41477,0,0,0-1.77636,3.75391Z" style="fill:#ecf0f1"/><path d="M263.583,300.3291l3.27929-.57812q3.65625-.64454,4.11133,1.93847a3.32285,3.32285,0,0,1-.80468,2.98438,5.9323,5.9323,0,0,1-3.43946,1.62353l-4.61328.81348a6.916,6.916,0,0,1-4.20312-.33545,3.36165,3.36165,0,0,1-1.9668-2.58594,6.829,6.829,0,0,1,.17969-2.54541l2.71-12.62451.17676-.86865q.75585-3.51489,3.71582-4.03662a3.05345,3.05345,0,0,1,2.24707.4414,2.5908,2.5908,0,0,1,1.22851,1.78858,8.66386,8.66386,0,0,1-.2832,2.98193Zm-.60059-25.8042a4.07509,4.07509,0,1,1-2.65039,1.67871A3.95532,3.95532,0,0,1,262.98242,274.5249Z" style="fill:#ecf0f1"/><path d="M283.33105,280.48145l.89942-.15821q3.68554-.65038,4.14062,1.93262a3.3082,3.3082,0,0,1-.81933,2.98633,5.93791,5.93791,0,0,1-3.42481,1.62207l-2.11816.373-2.20508,10.23194,3.25-.57324q3.68409-.64966,4.14063,1.9331a3.32251,3.32251,0,0,1-.80469,2.98438,5.92624,5.92624,0,0,1-3.43848,1.62353l-5.19433.916a5.59831,5.59831,0,0,1-3.67676-.39893,3.37111,3.37111,0,0,1-1.77637-2.52832,6.587,6.587,0,0,1,.10254-2.47217l.32617-1.37451,1.93457-9.04687-.43457.07666q-3.25048.57275-3.69433-1.95166a3.39191,3.39191,0,0,1,.79687-3.02832,5.85528,5.85528,0,0,1,3.43652-1.6377l1.334-.23535.86816-4.07227.18067-.84033q.79541-3.46215,3.72656-3.978a2.94485,2.94485,0,0,1,2.18652.437,2.584,2.584,0,0,1,1.19629,1.7788A7.2723,7.2723,0,0,1,284,278Z" style="fill:#ecf0f1"/><path d="M297.5625,294.33789l3.27832-.57812q3.65625-.64527,4.11231,1.938a3.32386,3.32386,0,0,1-.80469,2.98487,5.935,5.935,0,0,1-3.43946,1.623l-4.61328.81348a6.9191,6.9191,0,0,1-4.20312-.335,3.36111,3.36111,0,0,1-1.9668-2.58643,6.82923,6.82923,0,0,1,.17969-2.54541l2.71-12.624.17578-.86914q.75732-3.51489,3.7168-4.03613a3.04888,3.04888,0,0,1,2.24707.4414,2.58757,2.58757,0,0,1,1.22754,1.78809,8.65646,8.65646,0,0,1-.28223,2.98193Zm-.60059-25.80469a4.0732,4.0732,0,1,1-2.65136,1.67871A3.95732,3.95732,0,0,1,296.96191,268.5332Z" style="fill:#ecf0f1"/><path d="M312.18066,289.5166q.38379,2.1753,3.66309,1.59766l8.61719-1.51953q3.65625-.64454,4.1123,1.93847a3.32283,3.32283,0,0,1-.80469,2.98438,5.926,5.926,0,0,1-3.43945,1.623l-8.21191,1.44824q-4.585.80859-7.377-1.03223-2.79345-1.84131-3.56152-6.19531a13.89963,13.89963,0,0,1,2.084-10.32959,12.089,12.089,0,0,1,8.293-5.65088,9.16769,9.16769,0,0,1,6.459.91113,6.67375,6.67375,0,0,1,3.22949,4.83008,6.37391,6.37391,0,0,1-2.168,6.36572,10.50559,10.50559,0,0,1-5.09179,2.00537Zm.46192-5.52685,3.1914-.563q3.10548-.54712,2.77735-1.896-.35742-1.52269-2.27344-1.18408Q313.66894,280.8169,312.64258,283.98975Z" style="fill:#ecf0f1"/><path d="M334.79688,277.959l-.55665,2.61133q-.76317,3.48706-2.90918,3.86426a3.17892,3.17892,0,0,1-2.31445-.3999,2.54965,2.54965,0,0,1-1.21387-1.78955,7.41082,7.41082,0,0,1,.23926-2.37744l1.85156-8.67383q.67237-3.13989,2.84961-3.52393a2.48535,2.48535,0,0,1,2.999,1.56543l.38965.8584q.29736.66651.67675.77832a4.994,4.994,0,0,0,1.74219-.12744l6.79-1.19727q3.80127-.67016,4.27246,1.99854.64893,3.687-4.167,4.53515l-.26856.34717q-3.835,5.22437-3.41113,7.63184.4248,2.40966,3.09375,1.9375l3.65625-.64453q3.68555-.64967,4.13574,1.90478a3.35113,3.35113,0,0,1-.7998,3.0127,5.92624,5.92624,0,0,1-3.43848,1.62353l-5.6875,1.00293a6.24916,6.24916,0,0,1-5.09765-1.16552,7.485,7.485,0,0,1-2.75879-4.86915,8.65746,8.65746,0,0,1,.291-4.1206,24.621,24.621,0,0,1,2.65332-5.31494Z" style="fill:#ecf0f1"/><path d="M373.29785,280.9834l3.19141-.5625q3.65625-.64527,4.10742,1.90967a3.34909,3.34909,0,0,1-.81738,3.00048,5.87511,5.87511,0,0,1-3.42188,1.63575l-3.71387.65478a3.44087,3.44087,0,0,1-3.73828-1.3457,6.55562,6.55562,0,0,1-3.86425,2.68652l-3.3086.583a6.55656,6.55656,0,0,1-5.55176-1.37012,8.95071,8.95071,0,0,1-3.00976-5.61767,14.94969,14.94969,0,0,1,2.08691-10.64453q3.06885-5.07423,7.915-5.92871a6.13211,6.13211,0,0,1,5.88184,1.625,4.46409,4.46409,0,0,1,3.418-2.84571,3.021,3.021,0,0,1,2.27539.436,2.69294,2.69294,0,0,1,1.209,1.85107,5.35564,5.35564,0,0,1-.12109,2.02637l-.18067.83935Zm-13.30664-24.73a3.97362,3.97362,0,1,1-2.56933,1.63525A3.86641,3.86641,0,0,1,359.99121,256.25342ZM362.79,282.98633l.72559-.12793a3.12026,3.12026,0,0,0,2.82031-2.502l1.14551-5.37793a4.58388,4.58388,0,0,0,.11523-1.72608,1.71,1.71,0,0,0-1.00977-1.22851,3.01817,3.01817,0,0,0-1.94433-.25538q-2.11964.37428-3.68653,3.19336a8.15116,8.15116,0,0,0-1.10156,5.46094Q360.38183,283.41113,362.79,282.98633Zm8.28613-28.6875a3.99231,3.99231,0,0,1,1.38672,7.86328,3.972,3.972,0,0,1-4.64258-3.25,3.82818,3.82818,0,0,1,.65723-2.97266A3.867,3.867,0,0,1,371.07617,254.29883Z" style="fill:#ecf0f1"/><path d="M387.5166,277.46a4.11032,4.11032,0,1,1-1.65527,7.41211A4.1101,4.1101,0,0,1,387.5166,277.46Zm8.91992-25.59863-3.32031,18.32715q-.84815,4.69774-3.11035,5.09716a2.6748,2.6748,0,0,1-2.07129-.45751,2.70684,2.70684,0,0,1-1.14355-1.81836,7.618,7.618,0,0,1-.0127-1.94336L388.7627,250.252q.38964-3.89794,3.43652-4.43554a3.83423,3.83423,0,0,1,2.88281.56933,3.43861,3.43861,0,0,1,1.55371,2.35938A9.79866,9.79866,0,0,1,396.43652,251.86133Z" style="fill:#ecf0f1"/></svg>