<svg xmlns="http://www.w3.org/2000/svg" viewBox="0 0 512 512"><title>whyworkwhynot</title><polygon points="171.906 202.531 171.906 162.634 202.114 196.832 207.03 94.406 261.959 176.883 313.255 149.525 306.986 200.821 395.329 152.375 367.971 221.34 410.148 217.35 390.199 245.848 474.1 267.566 393.619 297.714 433.516 333.621 366.831 327.922 401.599 390.047 301.073 358.58 281.409 416.716 244.647 373.114 190.145 421.964 185.585 354.139 150.818 368.958 164.497 344.45 69.314 367.818 129.16 313.103 43.709 306.048 121.537 276.507 97.242 260.667 121.18 252.117 101.802 227.609 137.139 237.868 87.553 166.624 171.906 202.531" style="fill:#3498db;stroke:#2980b9;stroke-miterlimit:10;stroke-width:9px"/><path d="M183.41406,258.30225l-8.64648,23.519q-.97119,2.62134-2.94531,2.96924a2.995,2.995,0,0,1-2.502-.52442,3.9675,3.9675,0,0,1-1.2959-2.52343L166.002,267.208l-4.56933,16.96435a3.5363,3.5363,0,0,1-2.78418,2.94092,3.06089,3.06089,0,0,1-2.53516-.53955,3.89412,3.89412,0,0,1-1.32324-2.49756l-2.87695-13.84326a13.04234,13.04234,0,0,0-1.50977-4.85449,2.52561,2.52561,0,0,0-2.69336-.84278,4.61653,4.61653,0,0,0-2.93945,2.29346,5.20642,5.20642,0,0,0-.99805,3.75879,3.15836,3.15836,0,0,0,3.86133,2.7041c.28223-.0498.5498-.103.80273-.1626.25293-.05761.41211-.09277.4795-.10449q2.458-.43359,2.8164,1.60059a2.66446,2.66446,0,0,1-.99316,2.49121,6.45288,6.45288,0,0,1-3.34766,1.51367,7.25627,7.25627,0,0,1-5.792-1.28369,7.9848,7.9848,0,0,1-3.13379-5.28369,10.31351,10.31351,0,0,1,2.07813-8.06153,10.92061,10.92061,0,0,1,7.10449-4.64746q3.92724-.69286,6.09668,1.30323,2.16944,1.99438,3.06445,7.0708l.29981,1.58838,1.35742,6.9873,4.43847-16.87842a3.97984,3.97984,0,0,1,3.21387-3.32861,3.19168,3.19168,0,0,1,2.42285.43457,2.99532,2.99532,0,0,1,1.25879,2.07275l.01856.22559,2.34082,15.39209,6.31152-17.2085.28516-.85986a3.71489,3.71489,0,0,1,3.0625-2.53369l3.92773-.69287q2.80078-.49365,3.14844,1.48a2.51552,2.51552,0,0,1-.62012,2.25781,4.47014,4.47014,0,0,1-2.60547,1.24024Z" style="fill:#7f8c8d"/><path d="M194.94043,264.65967a7.90893,7.90893,0,0,1,3.28223-1.7627,4.7265,4.7265,0,0,1,3.3623.51856,3.53433,3.53433,0,0,1,1.72363,2.53174,5.95839,5.95839,0,0,1-.09668,2.28027l-1.18359,5.65039,2.31641-.40869q2.5371-.44678,2.85351,1.34472a2.30821,2.30821,0,0,1-.55859,2.07227,4.10958,4.10958,0,0,1-2.38672,1.12647l-4.04883.71386a3.31059,3.31059,0,0,1-2.2959-.35254,2.30341,2.30341,0,0,1-1.19336-1.64892,5.21248,5.21248,0,0,1,.13575-1.93457l1.05078-4.87842a4.00977,4.00977,0,0,0,.11133-1.37061q-.20216-1.14843-1.73243-.87793-2.05517.36255-2.84668,4.11622l-1.28027,5.9375q-.60059,2.82641-2.69629,3.19531a2.0662,2.0662,0,0,1-1.50293-.2749,1.66758,1.66758,0,0,1-.80762-1.16651,3.76974,3.76974,0,0,1,.06739-1.38232l.126-.583,4.95118-23.1582q.6577-2.98242,2.65234-3.3335a2.04169,2.04169,0,0,1,1.51758.30371,1.79268,1.79268,0,0,1,.83105,1.23486,5.727,5.727,0,0,1-.1875,2.00538Z" style="fill:#7f8c8d"/><path d="M220.06934,276.07568l2.33593-.41211q2.55762-.45117,2.874,1.3418a2.30627,2.30627,0,0,1-.5586,2.07129,4.10724,4.10724,0,0,1-2.38672,1.12793l-3.26269.5752a33.13,33.13,0,0,1-1.30566,4.96484q-1.771,5.50341-6.84766,6.3999a7.45236,7.45236,0,0,1-5.5166-1.022,6.35245,6.35245,0,0,1-2.94043-4.42334,6.72143,6.72143,0,0,1,.48242-3.91748,7.26728,7.26728,0,0,1,2.53516-3.11524,15.85236,15.85236,0,0,1,6.13086-2.09912l3.2832-.57861.32812-1.55322a7.2503,7.2503,0,0,1-2.62988,1.10693,5.41729,5.41729,0,0,1-3.6875-.48047,3.56937,3.56937,0,0,1-1.84277-2.61426,9.74307,9.74307,0,0,1,.30175-3.356l1.24024-5.80518.12207-.60351a3.23114,3.23114,0,0,1,2.59961-2.80469,2.0992,2.0992,0,0,1,1.58008.30273,1.9155,1.9155,0,0,1,.84668,1.32471,6.05128,6.05128,0,0,1-.18946,1.98584l-1.126,5.1626a6.90954,6.90954,0,0,0-.21778,1.59521q.11572.999,1.42383.76758a3.9015,3.9015,0,0,0,1.79785-.87842,2.6016,2.6016,0,0,0,1.01172-1.44433l1.53809-7.063.10156-.59961a3.207,3.207,0,0,1,2.60059-2.80469,2.07582,2.07582,0,0,1,1.58105.313,1.92142,1.92142,0,0,1,.84473,1.314,3.79908,3.79908,0,0,1-.06446,1.40332l-.1455.58643Zm-5.8125,5.55323-2.82032.49707q-4.63183.81664-4.12109,3.71728a2.24449,2.24449,0,0,0,.9248,1.53955,2.35915,2.35915,0,0,0,1.81348.32373,3.62939,3.62939,0,0,0,2.40527-1.6084A15.54888,15.54888,0,0,0,214.25684,281.62891Z" style="fill:#7f8c8d"/><path d="M280.44141,241.19385l-8.64649,23.51855q-.97119,2.62134-2.94531,2.96924a2.995,2.995,0,0,1-2.50195-.52441,3.96618,3.96618,0,0,1-1.2959-2.52344l-2.02246-14.53467L258.46,267.064a3.53628,3.53628,0,0,1-2.78418,2.94043,3.05914,3.05914,0,0,1-2.53515-.53955,3.89412,3.89412,0,0,1-1.32325-2.49755l-2.877-13.84327a13.0387,13.0387,0,0,0-1.50977-4.854,2.52578,2.52578,0,0,0-2.69336-.84326,4.61811,4.61811,0,0,0-2.93945,2.29345,5.20647,5.20647,0,0,0-.99805,3.75879,3.15838,3.15838,0,0,0,3.86133,2.70411c.28223-.04932.54981-.10254.80274-.16211.25293-.05762.41211-.09327.47949-.105q2.458-.4336,2.81641,1.60107a2.66487,2.66487,0,0,1-.99317,2.49121,6.45248,6.45248,0,0,1-3.34765,1.51318,7.25442,7.25442,0,0,1-5.792-1.28369,7.98372,7.98372,0,0,1-3.13379-5.2832,10.313,10.313,0,0,1,2.07813-8.06152,10.9231,10.9231,0,0,1,7.10449-4.648q3.92725-.69288,6.09668,1.30322,2.16943,1.99512,3.06445,7.07129l.29981,1.58789,1.35742,6.9873,4.43848-16.87793a3.97927,3.97927,0,0,1,3.21386-3.32861,3.18744,3.18744,0,0,1,2.42286.43457,2.99433,2.99433,0,0,1,1.25879,2.07276l.01855.22509,2.34082,15.39209L275.499,239.9043l.28516-.85987a3.71644,3.71644,0,0,1,3.0625-2.53369l3.92773-.69287q2.80079-.49365,3.14844,1.48a2.51687,2.51687,0,0,1-.62012,2.2583,4.47268,4.47268,0,0,1-2.60546,1.23975Z" style="fill:#7f8c8d"/><path d="M291.40332,246.46631a6.66264,6.66264,0,0,1,5.12988,1.00683,6.4281,6.4281,0,0,1,2.71485,4.38038,10.24462,10.24462,0,0,1-.23242,4.45556,9.46667,9.46667,0,0,1-1.959,3.84473,6.26065,6.26065,0,0,1-1.96484,1.519,12.37105,12.37105,0,0,1-3.07715.86475q-3.28418.57934-4.57031-.00342a6.31088,6.31088,0,0,1-3.665-5.00342,9.26232,9.26232,0,0,1,1.59082-7.11279A8.99522,8.99522,0,0,1,291.40332,246.46631Zm.27344,4.37646a3.586,3.586,0,0,0-2.46094,1.94922,5.02159,5.02159,0,0,0-.65723,3.45947q.41309,2.33643,3.03125,1.87549a3.00587,3.00587,0,0,0,2.18946-1.36181,5.28289,5.28289,0,0,0,.74414-3.7876,2.62845,2.62845,0,0,0-.99121-1.73535A2.30552,2.30552,0,0,0,291.67676,250.84277Z" style="fill:#7f8c8d"/><path d="M305.02148,248.9043l-.38769,1.81347q-.52734,2.42065-2.01856,2.68213a2.20644,2.20644,0,0,1-1.60742-.27783,1.76819,1.76819,0,0,1-.84179-1.24219,5.141,5.141,0,0,1,.166-1.65039l1.28516-6.02q.46728-2.18115,1.97851-2.44726a1.72458,1.72458,0,0,1,2.08106,1.08691l.27148.59619q.20508.46216.46875.54053a3.5029,3.5029,0,0,0,1.21-.08838l4.71387-.83105q2.63818-.46509,2.96484,1.38623.45119,2.55908-2.89257,3.14843l-.18555.24122q-2.66308,3.62622-2.36816,5.29785.29442,1.67137,2.14746,1.34521l2.53808-.44726q2.55909-.45119,2.8711,1.32129a2.32817,2.32817,0,0,1-.55567,2.0913,4.10978,4.10978,0,0,1-2.38672,1.127l-3.94824.69629a4.33745,4.33745,0,0,1-3.53809-.80909,5.19316,5.19316,0,0,1-1.916-3.37988,6.02312,6.02312,0,0,1,.20215-2.86084,17.20085,17.20085,0,0,1,1.84179-3.689Z" style="fill:#7f8c8d"/><path d="M329.54883,247.13525l3.98437,4.34375a3.02222,3.02222,0,0,1,.84668,1.38721,2.30531,2.30531,0,0,1-.48047,1.80908,2.48955,2.48955,0,0,1-1.61035,1.05176,1.80818,1.80818,0,0,1-1.63086-.64648l-.30566-.31983-5.90527-6.1665-1.27149,5.978q-.61522,2.87109-2.71094,3.23974a2.13176,2.13176,0,0,1-1.55371-.27637,1.7039,1.7039,0,0,1-.82422-1.19433,3.61241,3.61241,0,0,1,.085-1.40625l.126-.582,4.87305-22.772.126-.58251a3.15578,3.15578,0,0,1,2.56347-2.77735,2.08519,2.08519,0,0,1,1.54981.30762,1.81443,1.81443,0,0,1,.84179,1.24316,3.79284,3.79284,0,0,1-.07715,1.44629l-.125.583L325.14355,245.356l3.93848-4.16211a4.41038,4.41038,0,0,1,2.23242-1.47315,1.98258,1.98258,0,0,1,1.50586.29444,1.82082,1.82082,0,0,1,.80176,1.25,3.14732,3.14732,0,0,1-1.05664,2.72119l-.40234.42431Z" style="fill:#7f8c8d"/><path d="M344.002,226.74463a7.24733,7.24733,0,0,1,5.332.97119,6.06627,6.06627,0,0,1,2.834,4.23584,6.56983,6.56983,0,0,1-.26758,3.48486,12.80807,12.80807,0,0,1-2.44922,3.72364q-2.96631,3.43212-3.18359,4.31982l-.47363,1.91211a2.05931,2.05931,0,0,1-1.72266,1.65332,2.14628,2.14628,0,0,1-1.68359-.35791,2.17459,2.17459,0,0,1-.89942-1.4502q-.48926-2.78026,3.44043-7.81445a24.857,24.857,0,0,0,1.97363-2.76758,2.26921,2.26921,0,0,0,.22657-1.48291,2.05711,2.05711,0,0,0-.97852-1.42627,2.45825,2.45825,0,0,0-1.80566-.34619,2.85539,2.85539,0,0,0-1.81055,1.09766,2.34676,2.34676,0,0,0-.52539,1.91015,7.38326,7.38326,0,0,0,.64355,1.52686,4.19747,4.19747,0,0,1,.43457,1.16992,2.131,2.131,0,0,1-1.72265,2.48438,2.91639,2.91639,0,0,1-2.62207-.85645,5.33114,5.33114,0,0,1-1.5127-3.04492,7.14215,7.14215,0,0,1,1.33594-5.792A8.3245,8.3245,0,0,1,344.002,226.74463Zm-1.98242,21.7417a2.85343,2.85343,0,1,1-1.14844,5.147,2.76615,2.76615,0,0,1-1.17773-1.84961,2.8659,2.8659,0,0,1,2.32617-3.29736Z" style="fill:#7f8c8d"/><path d="M233.39551,300.53125l-8.64649,23.519q-.97119,2.62061-2.94531,2.96924a2.99428,2.99428,0,0,1-2.50195-.5249,3.96034,3.96034,0,0,1-1.2959-2.52295L215.98242,309.437l-4.56836,16.96436a3.53632,3.53632,0,0,1-2.78418,2.94092,3.0593,3.0593,0,0,1-2.53515-.54,3.88722,3.88722,0,0,1-1.32325-2.49707l-2.87695-13.84375a13.00944,13.00944,0,0,0-1.51074-4.85352,2.52274,2.52274,0,0,0-2.69238-.84326,4.62137,4.62137,0,0,0-2.93946,2.29346,5.20877,5.20877,0,0,0-.999,3.75976,3.16079,3.16079,0,0,0,3.8623,2.70313c.28223-.04981.54981-.103.80176-.1626q.37939-.08643.48047-.105,2.458-.43287,2.81641,1.60107a2.6657,2.6657,0,0,1-.99414,2.49121,6.44661,6.44661,0,0,1-3.34668,1.51465,7.2598,7.2598,0,0,1-5.793-1.28467,7.98737,7.98737,0,0,1-3.13281-5.28369,10.308,10.308,0,0,1,2.07812-8.061,10.92238,10.92238,0,0,1,7.10352-4.64844q3.92871-.69215,6.09668,1.30371,2.17089,1.99439,3.06543,7.0708l.2998,1.58838,1.35742,6.9873,4.4375-16.87841a3.98026,3.98026,0,0,1,3.21485-3.32862,3.19172,3.19172,0,0,1,2.42285.43457,2.99975,2.99975,0,0,1,1.25879,2.07325l.01855.22509,2.34082,15.39209,6.31153-17.209.28417-.85938a3.72034,3.72034,0,0,1,3.06348-2.53418l3.92774-.69238q2.79931-.49365,3.14843,1.481a2.51554,2.51554,0,0,1-.62011,2.25781,4.475,4.475,0,0,1-2.60547,1.23877Z" style="fill:#7f8c8d"/><path d="M244.9209,306.88867a7.91915,7.91915,0,0,1,3.2832-1.76318,4.735,4.735,0,0,1,3.36231.519,3.539,3.539,0,0,1,1.72363,2.53174,5.95859,5.95859,0,0,1-.09668,2.28027l-1.18457,5.65039,2.31641-.4082q2.53857-.44824,2.85351,1.34424a2.30564,2.30564,0,0,1-.55762,2.07178,4.11272,4.11272,0,0,1-2.38769,1.12695l-4.04883.71387a3.31061,3.31061,0,0,1-2.29492-.35254,2.30445,2.30445,0,0,1-1.19336-1.64844,5.214,5.214,0,0,1,.13574-1.93506l1.05078-4.87842a4.063,4.063,0,0,0,.11133-1.37109q-.20214-1.14844-1.7334-.87647-2.05517.36255-2.8457,4.11475l-1.28027,5.938q-.60206,2.82642-2.69629,3.19531a2.0662,2.0662,0,0,1-1.50293-.2749,1.66753,1.66753,0,0,1-.80762-1.1665,3.76955,3.76955,0,0,1,.06738-1.38233l.126-.583,4.95019-23.1582q.65919-2.981,2.65235-3.3335a2.0428,2.0428,0,0,1,1.51758.30323,1.7926,1.7926,0,0,1,.83105,1.23535,5.69714,5.69714,0,0,1-.18652,2.00537Z" style="fill:#7f8c8d"/><path d="M270.0498,318.30469l2.33692-.41211q2.55762-.45044,2.874,1.34228a2.30491,2.30491,0,0,1-.55859,2.0708,4.11026,4.11026,0,0,1-2.38672,1.12793l-3.26367.5752a33.03717,33.03717,0,0,1-1.30469,4.96582q-1.77246,5.50341-6.84766,6.39893a7.46116,7.46116,0,0,1-5.51757-1.02051,6.36007,6.36007,0,0,1-2.93946-4.42481,6.71362,6.71362,0,0,1,.48242-3.91748,7.26726,7.26726,0,0,1,2.53516-3.11523,15.85273,15.85273,0,0,1,6.12988-2.09912l3.28321-.5791.3291-1.55274a7.25879,7.25879,0,0,1-2.62988,1.10693,5.42011,5.42011,0,0,1-3.6875-.48046,3.56935,3.56935,0,0,1-1.84278-2.61475,9.71506,9.71506,0,0,1,.30176-3.35547l1.23926-5.80517.12207-.60352a3.23209,3.23209,0,0,1,2.60058-2.80469,2.10209,2.10209,0,0,1,1.58008.30225,1.91733,1.91733,0,0,1,.84571,1.32519,6.02426,6.02426,0,0,1-.18946,1.98584l-1.125,5.1626a6.91237,6.91237,0,0,0-.21777,1.5957q.11572.99829,1.42383.76709a3.91079,3.91079,0,0,0,1.79687-.87744,2.609,2.609,0,0,0,1.0127-1.44531l1.53711-7.063.10254-.6001a3.20648,3.20648,0,0,1,2.60058-2.80468,2.0781,2.0781,0,0,1,1.58106.31347,1.92566,1.92566,0,0,1,.84472,1.31446,3.81476,3.81476,0,0,1-.06445,1.40234l-.14648.58691Zm-5.8125,5.55322-2.81933.49707q-4.63331.81664-4.12207,3.71729a2.24893,2.24893,0,0,0,.92578,1.53955,2.35551,2.35551,0,0,0,1.8125.32373,3.62908,3.62908,0,0,0,2.40625-1.6084A15.53436,15.53436,0,0,0,264.2373,323.85791Z" style="fill:#7f8c8d"/><path d="M323.61426,284.62305l-4.60059,21.49658-.21582,1.01465a2.97975,2.97975,0,0,1-2.49512,2.4541,2.68766,2.68766,0,0,1-2.38867-.47119,6.37722,6.37722,0,0,1-1.40332-3.01416l-3.06836-11.98291-2.37793,11.13623a77.16227,77.16227,0,0,1-2.36035,9.16992,13.97472,13.97472,0,0,1-2.74609,4.50439,11.32629,11.32629,0,0,1-6.61133,3.61524,9.36009,9.36009,0,0,1-7.32715-1.44873,9.55106,9.55106,0,0,1-3.84668-6.4458,13.976,13.976,0,0,1,2.39844-10.66211,16.92668,16.92668,0,0,1,4.91894-4.66846,17.114,17.114,0,0,1,6.30762-2.56543,4.65165,4.65165,0,0,1,2.80274.22266,2.22029,2.22029,0,0,1,1.31836,1.709,2.17691,2.17691,0,0,1-.46582,1.95117,5.15753,5.15753,0,0,1-2.46387,1.22364,15.66969,15.66969,0,0,0-6.13867,2.99365,9.54641,9.54641,0,0,0-2.668,3.772,7.96536,7.96536,0,0,0-.47071,4.34131,5.31154,5.31154,0,0,0,1.81543,3.40771,4.20328,4.20328,0,0,0,3.48633.74561,5.54435,5.54435,0,0,0,3.84961-2.83887,28.163,28.163,0,0,0,2.66211-8.05029l4.51367-21.04492q.60206-2.82861,2.77832-3.21094,2.51661-.44385,3.26758,2.51807l3.41309,13.23047,3.09375-14.37745.18066-.86279a2.82662,2.82662,0,0,1,2.42481-2.37988l.82226-.16553,4.12988-.728q2.79933-.49365,3.13379,1.39991a2.61,2.61,0,0,1-.60742,2.3291,4.43484,4.43484,0,0,1-2.60449,1.249Z" style="fill:#7f8c8d"/><path d="M333.95117,290.00586a6.671,6.671,0,0,1,5.13086,1.00635,6.43562,6.43562,0,0,1,2.71485,4.38183,10.24175,10.24175,0,0,1-.2334,4.45459,9.43116,9.43116,0,0,1-1.959,3.84424,6.23714,6.23714,0,0,1-1.96484,1.51953,12.343,12.343,0,0,1-3.07715.86524q-3.28272.57861-4.57031-.00391a6.31065,6.31065,0,0,1-3.66406-5.00391,9.26156,9.26156,0,0,1,1.59082-7.1123A9.00054,9.00054,0,0,1,333.95117,290.00586Zm.27344,4.37744a3.58292,3.58292,0,0,0-2.46,1.94824,5.01752,5.01752,0,0,0-.65723,3.46q.41163,2.33643,3.03125,1.875a3.00633,3.00633,0,0,0,2.18946-1.36181,5.28774,5.28774,0,0,0,.74414-3.7876,2.62842,2.62842,0,0,0-.99122-1.73535A2.30737,2.30737,0,0,0,334.22461,294.3833Z" style="fill:#7f8c8d"/><path d="M351.82715,287.146l.624-.11036q2.55909-.45117,2.875,1.34229a2.29661,2.29661,0,0,1-.56933,2.07178,4.11792,4.11792,0,0,1-2.377,1.125l-1.4707.25927-1.53027,7.104,2.25586-.398q2.5576-.45117,2.874,1.34082a2.30744,2.30744,0,0,1-.55859,2.07227,4.11248,4.11248,0,0,1-2.3877,1.12646l-3.60547.63574a3.88094,3.88094,0,0,1-2.55078-.27588,2.34364,2.34364,0,0,1-1.23437-1.75586,4.56446,4.56446,0,0,1,.07226-1.71533l.22656-.9541,1.34278-6.28174-.30274.05322q-2.25585.39844-2.56445-1.354a2.35713,2.35713,0,0,1,.55371-2.10156,4.06524,4.06524,0,0,1,2.38574-1.13623l.92578-.16358.60254-2.82666.125-.584a3.19133,3.19133,0,0,1,2.58789-2.76123,2.0383,2.0383,0,0,1,1.51758.3042,1.79664,1.79664,0,0,1,.83008,1.23437,5.057,5.057,0,0,1-.18262,2.02588Z" style="fill:#7f8c8d"/><path d="M364.37305,274.19482a7.24965,7.24965,0,0,1,5.332.9712,6.07148,6.07148,0,0,1,2.835,4.23584,6.57948,6.57948,0,0,1-.26856,3.48486,12.8005,12.8005,0,0,1-2.44921,3.72314q-2.96631,3.43213-3.1836,4.32032l-.47265,1.91211a2.0615,2.0615,0,0,1-1.72364,1.65332,2.14527,2.14527,0,0,1-1.68359-.35791,2.172,2.172,0,0,1-.89844-1.45069q-.49072-2.78026,3.44043-7.814a24.66359,24.66359,0,0,0,1.97266-2.76758,2.25715,2.25715,0,0,0,.22656-1.48291,2.059,2.059,0,0,0-.97852-1.42676,2.45713,2.45713,0,0,0-1.80566-.3457,2.85333,2.85333,0,0,0-1.81055,1.09765,2.34572,2.34572,0,0,0-.52539,1.90967,7.37252,7.37252,0,0,0,.64356,1.52686,4.19779,4.19779,0,0,1,.43457,1.16992,2.13141,2.13141,0,0,1-1.72168,2.48486,2.91856,2.91856,0,0,1-2.62305-.85693,5.33711,5.33711,0,0,1-1.51269-3.04492,7.14778,7.14778,0,0,1,1.33593-5.79151A8.3226,8.3226,0,0,1,364.37305,274.19482ZM362.3916,295.9375a2.86557,2.86557,0,0,1,3.29395,2.30518,2.85339,2.85339,0,1,1-5.62012.99072,2.86283,2.86283,0,0,1,2.32617-3.2959Z" style="fill:#7f8c8d"/><path d="M182.64941,257.00293l-8.64648,23.519q-.97119,2.62134-2.94531,2.96924a2.995,2.995,0,0,1-2.502-.52441,3.9675,3.9675,0,0,1-1.29589-2.52344l-2.02247-14.53467L160.668,282.87305a3.5363,3.5363,0,0,1-2.78418,2.94091,3.06089,3.06089,0,0,1-2.53516-.53955,3.89413,3.89413,0,0,1-1.32324-2.49755l-2.87695-13.84327a13.04247,13.04247,0,0,0-1.50977-4.85449,2.52562,2.52562,0,0,0-2.69336-.84277,4.61647,4.61647,0,0,0-2.93945,2.29346,5.20644,5.20644,0,0,0-.99805,3.75878,3.15838,3.15838,0,0,0,3.86133,2.70411c.28223-.04981.54981-.103.80274-.1626.25292-.05762.4121-.09278.47949-.10449q2.458-.43361,2.8164,1.60058a2.66446,2.66446,0,0,1-.99316,2.49121,6.45288,6.45288,0,0,1-3.34766,1.51367,7.25624,7.25624,0,0,1-5.792-1.28369,7.98479,7.98479,0,0,1-3.13379-5.28369,10.3135,10.3135,0,0,1,2.07813-8.06152,10.92054,10.92054,0,0,1,7.10449-4.64746q3.92724-.69288,6.09668,1.30322,2.16943,1.99439,3.06445,7.0708l.29981,1.58838,1.35742,6.9873,4.43848-16.87841a3.97985,3.97985,0,0,1,3.21386-3.32862,3.19171,3.19171,0,0,1,2.42285.43457,2.99531,2.99531,0,0,1,1.25879,2.07276l.01856.22558,2.34082,15.39209,6.31152-17.20849.28516-.85987a3.71489,3.71489,0,0,1,3.0625-2.53369l3.92773-.69287q2.80079-.49365,3.14844,1.48a2.51552,2.51552,0,0,1-.62012,2.25781,4.47008,4.47008,0,0,1-2.60547,1.24024Z" style="fill:#ecf0f1"/><path d="M194.17578,263.36035a7.90889,7.90889,0,0,1,3.28223-1.76269,4.7265,4.7265,0,0,1,3.3623.51855A3.53435,3.53435,0,0,1,202.544,264.648a5.95879,5.95879,0,0,1-.09668,2.28027l-1.1836,5.65039,2.31641-.40869q2.5371-.44677,2.85351,1.34473a2.30817,2.30817,0,0,1-.55859,2.07226,4.10958,4.10958,0,0,1-2.38672,1.12647l-4.04883.71387a3.31064,3.31064,0,0,1-2.2959-.35254,2.30341,2.30341,0,0,1-1.19335-1.64893,5.21244,5.21244,0,0,1,.13574-1.93457l1.05078-4.87842a4.00971,4.00971,0,0,0,.11133-1.3706q-.20216-1.14844-1.73242-.87793-2.05518.36255-2.84668,4.11621l-1.28028,5.9375q-.60058,2.82642-2.69629,3.19531a2.06622,2.06622,0,0,1-1.50293-.2749,1.66752,1.66752,0,0,1-.80761-1.1665,3.76955,3.76955,0,0,1,.06738-1.38233l.126-.583,4.95117-23.1582q.65771-2.98242,2.65234-3.3335a2.04168,2.04168,0,0,1,1.51758.30371,1.79268,1.79268,0,0,1,.83105,1.23487,5.72689,5.72689,0,0,1-.1875,2.00537Z" style="fill:#ecf0f1"/><path d="M219.30469,274.77637l2.33594-.41211q2.55761-.45117,2.874,1.34179a2.30624,2.30624,0,0,1-.5586,2.07129,4.10724,4.10724,0,0,1-2.38671,1.12793l-3.2627.5752a33.1297,33.1297,0,0,1-1.30566,4.96484q-1.771,5.50342-6.84766,6.3999a7.45231,7.45231,0,0,1-5.5166-1.022,6.35246,6.35246,0,0,1-2.94043-4.42334,6.72144,6.72144,0,0,1,.48242-3.91748,7.26719,7.26719,0,0,1,2.53516-3.11523,15.85219,15.85219,0,0,1,6.13086-2.09912l3.2832-.57862.32812-1.55322a7.25006,7.25006,0,0,1-2.62988,1.10693,5.41736,5.41736,0,0,1-3.6875-.48046,3.56938,3.56938,0,0,1-1.84277-2.61426,9.74292,9.74292,0,0,1,.30176-3.356l1.24023-5.80518.12207-.60351a3.23115,3.23115,0,0,1,2.59961-2.80469,2.0992,2.0992,0,0,1,1.58008.30274,1.91543,1.91543,0,0,1,.84668,1.3247,6.05148,6.05148,0,0,1-.18945,1.98584l-1.126,5.1626a6.90871,6.90871,0,0,0-.21777,1.59522q.11571.999,1.42382.76757a3.90138,3.90138,0,0,0,1.79785-.87841,2.60162,2.60162,0,0,0,1.01172-1.44434l1.53809-7.063.10156-.59961a3.207,3.207,0,0,1,2.60059-2.80469,2.07582,2.07582,0,0,1,1.58105.313,1.92142,1.92142,0,0,1,.84473,1.314,3.79927,3.79927,0,0,1-.06445,1.40332l-.14551.58642Zm-5.8125,5.55322-2.82031.49707q-4.63185.81664-4.1211,3.71729a2.24447,2.24447,0,0,0,.92481,1.53955,2.35921,2.35921,0,0,0,1.81347.32373,3.62946,3.62946,0,0,0,2.40528-1.6084A15.5493,15.5493,0,0,0,213.49219,280.32959Z" style="fill:#ecf0f1"/><path d="M279.67676,239.89453l-8.64649,23.51856q-.97119,2.62132-2.94531,2.96923a2.995,2.995,0,0,1-2.502-.52441,3.96616,3.96616,0,0,1-1.2959-2.52344l-2.02246-14.53467-4.56934,16.96485a3.53629,3.53629,0,0,1-2.78418,2.94043,3.05918,3.05918,0,0,1-2.53515-.53955,3.89412,3.89412,0,0,1-1.32325-2.49756l-2.87695-13.84326a13.03893,13.03893,0,0,0-1.50976-4.854,2.52579,2.52579,0,0,0-2.69336-.84326,4.61818,4.61818,0,0,0-2.93946,2.29346,5.20639,5.20639,0,0,0-.998,3.75879,3.15836,3.15836,0,0,0,3.86132,2.7041c.28223-.04932.54981-.10254.80274-.16211.25293-.05762.41211-.09326.47949-.105q2.458-.43359,2.81641,1.60107a2.66485,2.66485,0,0,1-.99317,2.49121,6.45249,6.45249,0,0,1-3.34765,1.51319,7.25446,7.25446,0,0,1-5.792-1.28369,7.98369,7.98369,0,0,1-3.13378-5.28321,10.313,10.313,0,0,1,2.07812-8.06152,10.92314,10.92314,0,0,1,7.10449-4.648q3.92726-.69286,6.09668,1.30322,2.16944,1.99512,3.06446,7.07129l.2998,1.58789,1.35742,6.98731,4.43848-16.87793a3.97927,3.97927,0,0,1,3.21387-3.32862,3.18742,3.18742,0,0,1,2.42285.43458,2.99428,2.99428,0,0,1,1.25879,2.07275l.01855.2251,2.34082,15.39209,6.31153-17.2085.28515-.85986a3.71644,3.71644,0,0,1,3.0625-2.53369l3.92774-.69288q2.80077-.49365,3.14843,1.48a2.51689,2.51689,0,0,1-.62011,2.2583,4.4727,4.4727,0,0,1-2.60547,1.23974Z" style="fill:#ecf0f1"/><path d="M290.63867,245.167a6.66265,6.66265,0,0,1,5.12988,1.00684,6.42808,6.42808,0,0,1,2.71485,4.38037,10.24467,10.24467,0,0,1-.23242,4.45557,9.46669,9.46669,0,0,1-1.959,3.84472,6.26042,6.26042,0,0,1-1.96484,1.519,12.37111,12.37111,0,0,1-3.07715.86474q-3.28418.57935-4.57031-.00342a6.3109,6.3109,0,0,1-3.665-5.00341,9.26233,9.26233,0,0,1,1.59082-7.1128A8.99526,8.99526,0,0,1,290.63867,245.167Zm.27344,4.37647a3.586,3.586,0,0,0-2.46094,1.94922,5.0215,5.0215,0,0,0-.65722,3.45947q.41309,2.33643,3.03125,1.87549a3.00586,3.00586,0,0,0,2.18945-1.36182,5.28288,5.28288,0,0,0,.74414-3.7876,2.62841,2.62841,0,0,0-.99121-1.73535A2.30548,2.30548,0,0,0,290.91211,249.54346Z" style="fill:#ecf0f1"/><path d="M304.25684,247.605l-.3877,1.81348q-.52734,2.42065-2.01855,2.68213a2.2065,2.2065,0,0,1-1.60743-.27784,1.76817,1.76817,0,0,1-.84179-1.24218,5.141,5.141,0,0,1,.166-1.65039l1.28516-6.02q.46728-2.18116,1.97851-2.44727a1.72459,1.72459,0,0,1,2.08106,1.08691l.27148.5962q.20508.46215.46875.54052a3.50289,3.50289,0,0,0,1.21-.08838l4.71387-.83105q2.63819-.46509,2.96485,1.38623.45117,2.55909-2.89258,3.14844l-.18555.24121q-2.66309,3.62622-2.36816,5.29785.29443,1.67139,2.14746,1.34522l2.53808-.44727q2.55909-.45117,2.8711,1.32129a2.32818,2.32818,0,0,1-.55567,2.09131,4.10969,4.10969,0,0,1-2.38672,1.127l-3.94824.69629a4.33741,4.33741,0,0,1-3.53808-.80908,5.19318,5.19318,0,0,1-1.916-3.37989,6.02312,6.02312,0,0,1,.20215-2.86084,17.20072,17.20072,0,0,1,1.8418-3.689Z" style="fill:#ecf0f1"/><path d="M328.78418,245.83594l3.98437,4.34375a3.02211,3.02211,0,0,1,.84668,1.3872,2.30536,2.30536,0,0,1-.48046,1.80909,2.48955,2.48955,0,0,1-1.61036,1.05175,1.80819,1.80819,0,0,1-1.63086-.64648l-.30566-.31982-5.90527-6.16651-1.27149,5.978q-.61522,2.87109-2.71093,3.23975a2.13183,2.13183,0,0,1-1.55372-.27637,1.7039,1.7039,0,0,1-.82421-1.19434,3.61239,3.61239,0,0,1,.085-1.40625l.126-.582,4.873-22.772.126-.58252a3.15576,3.15576,0,0,1,2.56347-2.77734,2.08518,2.08518,0,0,1,1.54981.30761,1.81445,1.81445,0,0,1,.84179,1.24317,3.793,3.793,0,0,1-.07714,1.44629l-.125.583-2.90625,13.55469,3.93847-4.16211a4.41037,4.41037,0,0,1,2.23242-1.47314,1.98258,1.98258,0,0,1,1.50586.29443,1.82082,1.82082,0,0,1,.80176,1.25,3.14731,3.14731,0,0,1-1.05664,2.72119l-.40234.42432Z" style="fill:#ecf0f1"/><path d="M343.2373,225.44531a7.24741,7.24741,0,0,1,5.332.97119,6.06628,6.06628,0,0,1,2.834,4.23584,6.56986,6.56986,0,0,1-.26758,3.48487,12.808,12.808,0,0,1-2.44922,3.72363q-2.96631,3.43214-3.18359,4.31982l-.47363,1.91211a2.05931,2.05931,0,0,1-1.72266,1.65332,2.14628,2.14628,0,0,1-1.68359-.35791,2.17457,2.17457,0,0,1-.89942-1.45019q-.48926-2.78028,3.44043-7.81445a24.86,24.86,0,0,0,1.97364-2.76758,2.26929,2.26929,0,0,0,.22656-1.48291,2.05709,2.05709,0,0,0-.97852-1.42627,2.45825,2.45825,0,0,0-1.80566-.34619,2.85538,2.85538,0,0,0-1.81055,1.09765,2.34677,2.34677,0,0,0-.52539,1.91016,7.38351,7.38351,0,0,0,.64356,1.52685,4.19826,4.19826,0,0,1,.43457,1.16993,2.131,2.131,0,0,1-1.72266,2.48437,2.91639,2.91639,0,0,1-2.62207-.85644,5.33126,5.33126,0,0,1-1.5127-3.04493,7.14215,7.14215,0,0,1,1.33594-5.792A8.3245,8.3245,0,0,1,343.2373,225.44531Zm-1.98242,21.7417a2.85343,2.85343,0,1,1-1.14843,5.147,2.76614,2.76614,0,0,1-1.17774-1.8496,2.8659,2.8659,0,0,1,2.32617-3.29737Z" style="fill:#ecf0f1"/><path d="M232.63086,299.23193,223.98438,322.751q-.9712,2.6206-2.94532,2.96923a2.99429,2.99429,0,0,1-2.50195-.5249,3.96033,3.96033,0,0,1-1.2959-2.52295l-2.02344-14.53466-4.56836,16.96435a3.53629,3.53629,0,0,1-2.78418,2.94092,3.0593,3.0593,0,0,1-2.53515-.54,3.88717,3.88717,0,0,1-1.32324-2.49707l-2.877-13.84375a13.00944,13.00944,0,0,0-1.51074-4.85352,2.52273,2.52273,0,0,0-2.69238-.84326,4.62146,4.62146,0,0,0-2.93946,2.29346,5.20877,5.20877,0,0,0-.999,3.75976,3.16078,3.16078,0,0,0,3.86231,2.70313c.28222-.0498.5498-.103.80175-.1626q.37939-.08643.48047-.105,2.458-.43285,2.81641,1.60108a2.6657,2.6657,0,0,1-.99414,2.49121,6.44668,6.44668,0,0,1-3.34668,1.51465,7.2598,7.2598,0,0,1-5.793-1.28467,7.98742,7.98742,0,0,1-3.13281-5.28369,10.30809,10.30809,0,0,1,2.07812-8.061,10.92242,10.92242,0,0,1,7.10352-4.64844q3.92871-.69213,6.09668,1.30371,2.17089,1.99438,3.06543,7.0708l.2998,1.58838,1.35742,6.98731,4.4375-16.87842a3.98023,3.98023,0,0,1,3.21485-3.32861,3.19168,3.19168,0,0,1,2.42285.43457,2.99968,2.99968,0,0,1,1.25879,2.07324l.01855.2251,2.34082,15.39209,6.31153-17.209.28418-.85937a3.72031,3.72031,0,0,1,3.06347-2.53418l3.92774-.69238q2.79932-.49367,3.14843,1.481a2.51554,2.51554,0,0,1-.62011,2.25781,4.475,4.475,0,0,1-2.60547,1.23877Z" style="fill:#ecf0f1"/><path d="M244.15625,305.58936a7.91919,7.91919,0,0,1,3.2832-1.76319,4.735,4.735,0,0,1,3.36231.519,3.53894,3.53894,0,0,1,1.72363,2.53174,5.95865,5.95865,0,0,1-.09668,2.28028l-1.18457,5.65039,2.31641-.40821q2.53857-.44823,2.85351,1.34424a2.30565,2.30565,0,0,1-.55761,2.07178,4.11278,4.11278,0,0,1-2.3877,1.127l-4.04883.71387a3.31055,3.31055,0,0,1-2.29492-.35254,2.30445,2.30445,0,0,1-1.19336-1.64844,5.214,5.214,0,0,1,.13574-1.93506l1.05078-4.87841a4.06309,4.06309,0,0,0,.11133-1.3711q-.20214-1.14843-1.7334-.87646-2.05517.36255-2.8457,4.11474l-1.28027,5.938q-.60205,2.82642-2.69629,3.19532a2.06625,2.06625,0,0,1-1.50293-.27491,1.66751,1.66751,0,0,1-.80762-1.1665,3.77,3.77,0,0,1,.06738-1.38233l.126-.583,4.9502-23.15821q.65918-2.981,2.65234-3.33349a2.04275,2.04275,0,0,1,1.51758.30322,1.79257,1.79257,0,0,1,.83105,1.23535,5.69713,5.69713,0,0,1-.18652,2.00537Z" style="fill:#ecf0f1"/><path d="M269.28516,317.00537l2.33691-.41211q2.55762-.45043,2.874,1.34229a2.30489,2.30489,0,0,1-.55859,2.0708,4.11032,4.11032,0,0,1-2.38672,1.12793l-3.26367.57519a33.03441,33.03441,0,0,1-1.30469,4.96582q-1.77246,5.50342-6.84765,6.39893a7.46117,7.46117,0,0,1-5.51758-1.02051,6.36006,6.36006,0,0,1-2.93946-4.4248,6.71353,6.71353,0,0,1,.48243-3.91748,7.2672,7.2672,0,0,1,2.53515-3.11524,15.85272,15.85272,0,0,1,6.12989-2.09912l3.2832-.5791.3291-1.55274a7.25875,7.25875,0,0,1-2.62988,1.10694,5.42011,5.42011,0,0,1-3.6875-.48047,3.56938,3.56938,0,0,1-1.84278-2.61475,9.71507,9.71507,0,0,1,.30176-3.35547l1.23926-5.80517.12207-.60352a3.23207,3.23207,0,0,1,2.60059-2.80468,2.10206,2.10206,0,0,1,1.58007.30224,1.91735,1.91735,0,0,1,.84571,1.3252,6.024,6.024,0,0,1-.18946,1.98584l-1.125,5.16259a6.91237,6.91237,0,0,0-.21777,1.59571q.11572.99828,1.42383.76709a3.91089,3.91089,0,0,0,1.79687-.87744,2.609,2.609,0,0,0,1.0127-1.44532l1.53711-7.063.10254-.6001a3.2065,3.2065,0,0,1,2.60058-2.80469,2.07814,2.07814,0,0,1,1.58106.31348,1.92561,1.92561,0,0,1,.84472,1.31445,3.81475,3.81475,0,0,1-.06445,1.40234l-.14648.58692Zm-5.8125,5.55322-2.81934.49707q-4.6333.81666-4.12207,3.71729a2.24893,2.24893,0,0,0,.92578,1.53955,2.35547,2.35547,0,0,0,1.8125.32373,3.629,3.629,0,0,0,2.40625-1.6084A15.53448,15.53448,0,0,0,263.47266,322.55859Z" style="fill:#ecf0f1"/><path d="M322.84961,283.32373,318.249,304.82031l-.21582,1.01465a2.97974,2.97974,0,0,1-2.49511,2.4541,2.68767,2.68767,0,0,1-2.38868-.47119,6.37726,6.37726,0,0,1-1.40332-3.01416l-3.06836-11.98291L306.2998,303.957a77.16118,77.16118,0,0,1-2.36035,9.16992,13.97487,13.97487,0,0,1-2.74609,4.5044,11.32628,11.32628,0,0,1-6.61133,3.61523,9.36011,9.36011,0,0,1-7.32715-1.44873,9.55106,9.55106,0,0,1-3.84668-6.4458,13.976,13.976,0,0,1,2.39844-10.66211,16.927,16.927,0,0,1,4.91895-4.66846,17.11391,17.11391,0,0,1,6.30761-2.56543,4.65165,4.65165,0,0,1,2.80274.22266,2.22027,2.22027,0,0,1,1.31836,1.709,2.17687,2.17687,0,0,1-.46582,1.95117,5.15762,5.15762,0,0,1-2.46387,1.22363,15.66976,15.66976,0,0,0-6.13867,2.99365,9.54654,9.54654,0,0,0-2.668,3.772,7.9654,7.9654,0,0,0-.4707,4.3413,5.31152,5.31152,0,0,0,1.81543,3.40772,4.20325,4.20325,0,0,0,3.48632.7456,5.54431,5.54431,0,0,0,3.84961-2.83886,28.16309,28.16309,0,0,0,2.66211-8.0503l4.51367-21.04492q.60205-2.82861,2.77832-3.21094,2.51661-.44383,3.26758,2.51807l3.41309,13.23047,3.09375-14.37744.18066-.86279a2.82663,2.82663,0,0,1,2.42481-2.37989l.82226-.16552,4.12989-.728q2.79932-.49365,3.13378,1.3999a2.61,2.61,0,0,1-.60742,2.3291,4.4349,4.4349,0,0,1-2.60449,1.249Z" style="fill:#ecf0f1"/><path d="M333.18652,288.70654a6.67108,6.67108,0,0,1,5.13086,1.00635,6.43563,6.43563,0,0,1,2.71485,4.38184,10.24162,10.24162,0,0,1-.2334,4.45459,9.43118,9.43118,0,0,1-1.959,3.84423,6.237,6.237,0,0,1-1.96484,1.51954,12.34288,12.34288,0,0,1-3.07715.86523q-3.28271.57861-4.57031-.00391a6.31062,6.31062,0,0,1-3.66406-5.0039,9.26158,9.26158,0,0,1,1.59082-7.11231A9.00054,9.00054,0,0,1,333.18652,288.70654ZM333.46,293.084a3.58294,3.58294,0,0,0-2.46,1.94825,5.01755,5.01755,0,0,0-.65723,3.46q.41163,2.33642,3.03125,1.875a3.00634,3.00634,0,0,0,2.18946-1.36182,5.28769,5.28769,0,0,0,.74414-3.7876,2.62847,2.62847,0,0,0-.99121-1.73535A2.30743,2.30743,0,0,0,333.46,293.084Z" style="fill:#ecf0f1"/><path d="M351.0625,285.84668l.624-.11035q2.55909-.45117,2.875,1.34228a2.29658,2.29658,0,0,1-.56933,2.07178,4.11785,4.11785,0,0,1-2.377,1.125l-1.4707.25928-1.53027,7.104,2.25586-.39795q2.55762-.45117,2.874,1.34082a2.30743,2.30743,0,0,1-.55859,2.07227,4.11245,4.11245,0,0,1-2.3877,1.12646l-3.60547.63575a3.88107,3.88107,0,0,1-2.55078-.27588,2.34368,2.34368,0,0,1-1.23437-1.75586,4.56444,4.56444,0,0,1,.07226-1.71533l.22656-.95411,1.34278-6.28173-.30274.05322q-2.25585.39843-2.56445-1.354a2.35717,2.35717,0,0,1,.55371-2.10156,4.06524,4.06524,0,0,1,2.38574-1.13623l.92579-.16357.60253-2.82666.125-.584a3.19134,3.19134,0,0,1,2.58789-2.76123,2.03835,2.03835,0,0,1,1.51758.3042,1.79666,1.79666,0,0,1,.83008,1.23438,5.057,5.057,0,0,1-.18262,2.02588Z" style="fill:#ecf0f1"/><path d="M363.6084,272.89551a7.24965,7.24965,0,0,1,5.332.97119,6.07149,6.07149,0,0,1,2.835,4.23584,6.57958,6.57958,0,0,1-.26855,3.48486,12.80072,12.80072,0,0,1-2.44922,3.72315q-2.96631,3.43212-3.1836,4.32031l-.47265,1.91211a2.06148,2.06148,0,0,1-1.72364,1.65332,2.14519,2.14519,0,0,1-1.68359-.35791,2.172,2.172,0,0,1-.89844-1.45068q-.49073-2.78028,3.44043-7.814a24.66123,24.66123,0,0,0,1.97266-2.76758,2.25708,2.25708,0,0,0,.22656-1.48291,2.059,2.059,0,0,0-.97851-1.42676,2.45716,2.45716,0,0,0-1.80567-.3457,2.85332,2.85332,0,0,0-1.81054,1.09766,2.34573,2.34573,0,0,0-.5254,1.90967,7.37311,7.37311,0,0,0,.64356,1.52685,4.19769,4.19769,0,0,1,.43457,1.16992,2.13143,2.13143,0,0,1-1.72168,2.48487,2.91857,2.91857,0,0,1-2.623-.85694,5.33707,5.33707,0,0,1-1.51269-3.04492,7.14776,7.14776,0,0,1,1.33594-5.7915A8.32247,8.32247,0,0,1,363.6084,272.89551ZM361.627,294.63818a2.86557,2.86557,0,0,1,3.29395,2.30518,2.85339,2.85339,0,1,1-5.62012.99072,2.86284,2.86284,0,0,1,2.32617-3.2959Z" style="fill:#ecf0f1"/></svg>