<svg xmlns="http://www.w3.org/2000/svg" viewBox="0 0 512 512"><title>yourwaytowork</title><polygon points="238.718 88.701 208.12 127.145 140.647 86.347 152.416 167.942 83.374 156.958 115.541 216.585 73.175 230.708 98.281 266.013 62.191 303.673 129.664 317.01 125.741 362.515 171.246 361.731 169.484 423.977 214.397 376.637 244.995 419.789 263.04 371.145 317.175 419.004 314.822 340.547 375.233 353.885 356.404 298.181 447.414 295.042 387.002 240.907 429.369 187.556 365.034 181.28 387.786 106.746 313.252 153.82 318.744 85.563 263.825 124.006 238.718 88.701" style="fill:#f1c40f;stroke:#f39c12;stroke-miterlimit:10;stroke-width:9px"/><path d="M172.3291,221.45215l-5.38672,25.145,3.57129-.62988q3.6504-.6438,4.1084,1.94921a3.32071,3.32071,0,0,1-.80078,2.96436,5.82734,5.82734,0,0,1-3.40918,1.624l-4.94824.87256-1.07227,5.209q-1.80468,8.63745-4.71191,12.57373a12.32792,12.32792,0,0,1-8.11914,4.856,11.383,11.383,0,0,1-13.501-9.43164,12.72326,12.72326,0,0,1,.74512-7.14258,15.166,15.166,0,0,1,4.59472-6.04736q4.08106-3.30981,12.07032-4.71973l4.19726-.79492.51172-2.35351a7.04551,7.04551,0,0,1-2.97363,1.23291,8.92086,8.92086,0,0,1-6.63672-1.20313,7.69435,7.69435,0,0,1-3.49512-5.35693,17.83983,17.83983,0,0,1,.28418-5.50635l.30664-1.66308.28028-1.6587a8.5745,8.5745,0,0,0,.11914-2.88671,2.75186,2.75186,0,0,0-1.49414-1.97266,4.1753,4.1753,0,0,0-2.83106-.42822,6.28321,6.28321,0,0,0-4.23242,3.147,7.58168,7.58168,0,0,0-1.20313,5.47607,4.0141,4.0141,0,0,0,1.15625,2.375,5.84215,5.84215,0,0,0,2.82129,1.15284,2.58033,2.58033,0,0,1,2.334,2.09765,3.26641,3.26641,0,0,1-.69434,2.71436,4.18548,4.18548,0,0,1-2.65332,1.50488,7.3576,7.3576,0,0,1-6.22168-1.79443,10.30338,10.30338,0,0,1-3.5625-6.35645,13.9145,13.9145,0,0,1,2.57715-10.8335,14.23182,14.23182,0,0,1,9.41406-6.09277,10.44077,10.44077,0,0,1,7.68457,1.34473,8.72638,8.72638,0,0,1,4.02344,6.11133,10.82471,10.82471,0,0,1-.00879,3.8208l-.53711,2.98584a12.79207,12.79207,0,0,0-.32031,3.90283,2.841,2.841,0,0,0,1.29785,1.95312,3.16859,3.16859,0,0,0,2.37695.481,4.44471,4.44471,0,0,0,3.01563-1.92334,15.35411,15.35411,0,0,0,1.86816-5.18359l2.88575-13.49414a4.52418,4.52418,0,0,1,4.29-4.13965l6.24317-1.10108q3.65186-.6438,4.08984,1.84375a3.441,3.441,0,0,1-.78418,3.05616,5.812,5.812,0,0,1-3.43359,1.64355Zm-14.11426,33.20361a26.98131,26.98131,0,0,0-8.332,2.55957,10.06138,10.06138,0,0,0-3.85449,3.58594,6.19794,6.19794,0,0,0-.85937,4.33936,4.94956,4.94956,0,0,0,1.97851,3.252,4.48315,4.48315,0,0,0,3.57227.8418,5.87063,5.87063,0,0,0,3.97461-2.90967,24.22574,24.22574,0,0,0,2.65332-7.61524Z" style="fill:#7f8c8d"/><path d="M188.3125,228.09863a8.75689,8.75689,0,0,1,6.73926,1.3208,8.44669,8.44669,0,0,1,3.56543,5.7544,13.42612,13.42612,0,0,1-.30567,5.85156,12.39967,12.39967,0,0,1-2.57324,5.04981,8.25789,8.25789,0,0,1-2.58105,1.99707,16.30416,16.30416,0,0,1-4.041,1.13476q-4.3125.76026-6.00195-.00586a8.28735,8.28735,0,0,1-4.81446-6.57031,12.16813,12.16813,0,0,1,2.08985-9.34326A11.81377,11.81377,0,0,1,188.3125,228.09863Zm.35938,5.74756a4.70582,4.70582,0,0,0-3.23145,2.56055,6.5957,6.5957,0,0,0-.86328,4.54443q.542,3.07032,3.98047,2.46192a3.94993,3.94993,0,0,0,2.877-1.78907,6.94457,6.94457,0,0,0,.97754-4.97265,3.45075,3.45075,0,0,0-1.30176-2.28028A3.03186,3.03186,0,0,0,188.67188,233.84619Z" style="fill:#7f8c8d"/><path d="M219.7666,237.85547l3.07031-.541a4.70536,4.70536,0,0,1,2.6875.08594,2.06464,2.06464,0,0,1,1.082,1.64941,3.07105,3.07105,0,0,1-.73145,2.73536,5.34961,5.34961,0,0,1-3.13281,1.49267l-4.73633.835a2.94458,2.94458,0,0,1-3.26563-1.19726,4.65867,4.65867,0,0,1-3.34863,2.36377l-3.8623.68115a5.47323,5.47323,0,0,1-4.11914-.77393,4.92512,4.92512,0,0,1-2.18262-3.40722,8.17568,8.17568,0,0,1,.165-3.08448l2.04-9.47021q.85986-3.9441,3.47851-4.40527a2.80329,2.80329,0,0,1,2.06055.38671,2.36608,2.36608,0,0,1,1.10742,1.64649,4.96329,4.96329,0,0,1-.10156,1.89941l-.16406.7666-1.5791,7.28711-.15137.84668a4.61471,4.61471,0,0,0-.082,1.07862q.15673,1.199,1.74414.91992,3.27978-.57788,3.89843-3.415l1.87012-8.73291q.82911-3.96533,3.52735-4.43994a2.73863,2.73863,0,0,1,2.03515.4043,2.376,2.376,0,0,1,1.10645,1.63232,7.94371,7.94371,0,0,1-.24024,2.66162Z" style="fill:#7f8c8d"/><path d="M232.25879,226.70557l-.50781,2.38086q-.69433,3.178-2.65235,3.52295a2.9019,2.9019,0,0,1-2.11035-.36426,2.32428,2.32428,0,0,1-1.10547-1.63233,6.76087,6.76087,0,0,1,.21778-2.167l1.6875-7.9082q.61377-2.863,2.59765-3.21289a2.26518,2.26518,0,0,1,2.73438,1.42724l.35644.78272q.271.60644.61621.71a4.56638,4.56638,0,0,0,1.58887-.11572l6.19141-1.0918q3.46435-.61085,3.89453,1.82129.59327,3.36182-3.79883,4.13476l-.24512.31592q-3.49658,4.76441-3.10937,6.95947.38672,2.1958,2.82031,1.76661l3.334-.58789q3.35889-.59253,3.77051,1.73535a3.06009,3.06009,0,0,1-.72949,2.748,5.40392,5.40392,0,0,1-3.13574,1.48l-5.18555.91456a5.70284,5.70284,0,0,1-4.64746-1.0625,6.82268,6.82268,0,0,1-2.51465-4.43946,7.87933,7.87933,0,0,1,.26563-3.75586,22.41627,22.41627,0,0,1,2.41894-4.84717Z" style="fill:#7f8c8d"/><path d="M281.43262,222.78223l4.78906-9.19287.3916-.72364a4.44581,4.44581,0,0,1,3.0791-2.64306,2.6717,2.6717,0,0,1,2.09571.43457,2.742,2.742,0,0,1,1.11523,1.83545,6.0925,6.0925,0,0,1-1.03516,3.56494l-7.71972,14.23779q-1.5249,2.80444-3.61426,3.17383a3.85989,3.85989,0,0,1-3.13867-.78272,4.59478,4.59478,0,0,1-1.75-2.96484,6.488,6.488,0,0,1-.09375-.99365l.03418-4.91455-4.03028,8.70215q-1.25976,2.75829-3.32324,3.12255a3.66557,3.66557,0,0,1-3.15234-.86181,5.46146,5.46146,0,0,1-1.7627-3.34522,4.23931,4.23931,0,0,1-.06738-.53369l-1.21387-11.21582a5.75438,5.75438,0,0,1,.54395-3.49219,3.30372,3.30372,0,0,1,2.42871-1.61474q2.4873-.438,2.96777,2.28711.07911.4497.125,1.01416l.56446,7.53906,4.41211-9.481q1.40186-3.02929,3.88964-3.46777a3.3982,3.3982,0,0,1,2.58789.44385,3.18143,3.18143,0,0,1,1.31446,2.19677c.07129.40528.11523.70557.13183.90332Z" style="fill:#7f8c8d"/><path d="M311.72852,221.64014l2.91113-.51319q3.33252-.5874,3.74316,1.74024a3.05431,3.05431,0,0,1-.74511,2.7373,5.35188,5.35188,0,0,1-3.12012,1.49072l-3.38574.59717a3.13708,3.13708,0,0,1-3.40821-1.22656,5.97771,5.97771,0,0,1-3.52343,2.44873l-3.01563.53174a5.98529,5.98529,0,0,1-5.0625-1.24805,8.17077,8.17077,0,0,1-2.74414-5.123,13.63083,13.63083,0,0,1,1.90332-9.70557q2.79784-4.62452,7.21582-5.40527a5.59427,5.59427,0,0,1,5.36328,1.48242,4.06711,4.06711,0,0,1,3.11524-2.59473,2.759,2.759,0,0,1,2.07519.39746,2.45181,2.45181,0,0,1,1.10254,1.6875,4.88778,4.88778,0,0,1-.11035,1.84717l-.165.76611Zm-9.58008,1.82617.66113-.1167a2.84483,2.84483,0,0,0,2.57129-2.28174l1.04492-4.90381a4.18953,4.18953,0,0,0,.10449-1.57324,1.55952,1.55952,0,0,0-.91992-1.11914,2.74967,2.74967,0,0,0-1.77344-.2334q-1.93066.34057-3.36035,2.9126a7.4301,7.4301,0,0,0-1.00488,4.977Q299.95214,223.85255,302.14844,223.46631Z" style="fill:#7f8c8d"/><path d="M335.292,224.55078l3.06934-.541q3.36034-.59253,3.77441,1.76171a3.0287,3.0287,0,0,1-.7334,2.72168,5.40389,5.40389,0,0,1-3.13574,1.48l-4.28515.75586a43.43269,43.43269,0,0,1-1.71387,6.522q-2.32764,7.22754-8.99317,8.40429a9.792,9.792,0,0,1-7.248-1.34082,8.35049,8.35049,0,0,1-3.86133-5.81054,8.81512,8.81512,0,0,1,.63476-5.14453,9.54324,9.54324,0,0,1,3.32911-4.09327q2.57519-1.79076,8.05175-2.75586l4.3125-.76074.43164-2.04053a9.5323,9.5323,0,0,1-3.4541,1.45508,7.11462,7.11462,0,0,1-4.84472-.63232,4.68668,4.68668,0,0,1-2.419-3.43408,12.79117,12.79117,0,0,1,.39551-4.40723l1.62891-7.625.16113-.7915q.74268-3.21313,3.415-3.68409a2.76172,2.76172,0,0,1,2.07519.39746,2.518,2.518,0,0,1,1.11133,1.74024,7.96811,7.96811,0,0,1-.249,2.6084l-1.47852,6.77929a9.05107,9.05107,0,0,0-.28515,2.09766q.1494,1.30884,1.86914,1.00635a5.14619,5.14619,0,0,0,2.36132-1.15235A3.43146,3.43146,0,0,0,330.541,216.168l2.01953-9.27637.13379-.78711q.71631-3.20874,3.415-3.68408a2.72763,2.72763,0,0,1,2.07714.41113,2.52518,2.52518,0,0,1,1.10938,1.72657,4.98308,4.98308,0,0,1-.084,1.84228l-.1914.771Zm-7.63379,7.293-3.70312.65332q-6.08643,1.07226-5.41406,4.88232a2.95026,2.95026,0,0,0,1.21582,2.022,3.09637,3.09637,0,0,0,2.38086.42627,4.77213,4.77213,0,0,0,3.16015-2.11182A20.50927,20.50927,0,0,0,327.6582,231.84375Z" style="fill:#7f8c8d"/><path d="M192.80566,294.729l.81934-.14453q3.36034-.59253,3.77539,1.76221a3.01365,3.01365,0,0,1-.74707,2.72266,5.41555,5.41555,0,0,1-3.12207,1.47851l-1.93164.34082-2.00977,9.32813,2.96289-.52246q3.35889-.59253,3.77442,1.7622a3.02774,3.02774,0,0,1-.7334,2.72119,5.40392,5.40392,0,0,1-3.13574,1.48l-4.73535.83545a5.10258,5.10258,0,0,1-3.35157-.36377,3.07418,3.07418,0,0,1-1.62011-2.30615,5.9817,5.9817,0,0,1,.09375-2.25293l.29785-1.25293,1.76367-8.24853-.39648.06982q-2.96339.52294-3.37012-1.78027a3.091,3.091,0,0,1,.72851-2.76026A5.34069,5.34069,0,0,1,185,296.10547l1.21777-.21484.791-3.7129.16406-.76611q.72657-3.156,3.39844-3.627a2.68208,2.68208,0,0,1,1.99414.39844,2.35818,2.35818,0,0,1,1.08984,1.62158,6.6394,6.6394,0,0,1-.24023,2.66113Z" style="fill:#7f8c8d"/><path d="M208.05762,291.65723a8.75475,8.75475,0,0,1,6.73926,1.3208,8.45339,8.45339,0,0,1,3.56542,5.75439,13.45578,13.45578,0,0,1-.30566,5.85156,12.39775,12.39775,0,0,1-2.57324,5.04932,8.25966,8.25966,0,0,1-2.58106,1.99756,16.32541,16.32541,0,0,1-4.041,1.13477q-4.3125.76025-6.00293-.00586a8.287,8.287,0,0,1-4.81348-6.57032,12.16813,12.16813,0,0,1,2.08985-9.34326A11.812,11.812,0,0,1,208.05762,291.65723Zm.35937,5.74756a4.70581,4.70581,0,0,0-3.23144,2.56054,6.58926,6.58926,0,0,0-.86231,4.54444q.54053,3.07031,3.97949,2.46191a3.94808,3.94808,0,0,0,2.877-1.78906,6.94371,6.94371,0,0,0,.97754-4.97266,3.45305,3.45305,0,0,0-1.30176-2.28076A3.03432,3.03432,0,0,0,208.417,297.40479Z" style="fill:#7f8c8d"/><path d="M253.001,294.83594l4.78906-9.19336.3916-.72315a4.44543,4.44543,0,0,1,3.0791-2.64355,2.67188,2.67188,0,0,1,2.09571.43506,2.741,2.741,0,0,1,1.11523,1.83545,6.08866,6.08866,0,0,1-1.03613,3.56494l-7.71875,14.2373q-1.5249,2.80518-3.61426,3.17383a3.85988,3.85988,0,0,1-3.13867-.78271,4.59354,4.59354,0,0,1-1.75-2.96485,6.24763,6.24763,0,0,1-.09375-.99365l.03418-4.91455-4.03125,8.70264q-1.25831,2.75829-3.32227,3.12207a3.66148,3.66148,0,0,1-3.15234-.86133,5.46585,5.46585,0,0,1-1.76367-3.3457,4.40073,4.40073,0,0,1-.06641-.5337l-1.21387-11.21582a5.7433,5.7433,0,0,1,.54395-3.49121,3.30346,3.30346,0,0,1,2.42871-1.61572q2.4873-.438,2.96777,2.28711c.05274.2998.09473.63818.124,1.01465l.56543,7.53857,4.41113-9.48047q1.40331-3.03,3.88965-3.46826a3.402,3.402,0,0,1,2.58886.44385,3.18484,3.18484,0,0,1,1.31446,2.19678c.07129.40527.11523.707.13183.90332Z" style="fill:#7f8c8d"/><path d="M274.85938,279.87793a8.757,8.757,0,0,1,6.73925,1.32129,8.45132,8.45132,0,0,1,3.56543,5.75391,13.441,13.441,0,0,1-.30566,5.85156,12.41184,12.41184,0,0,1-2.57324,5.0498,8.26679,8.26679,0,0,1-2.58106,1.99756,16.328,16.328,0,0,1-4.041,1.13428q-4.3125.761-6.00293-.00586a8.2863,8.2863,0,0,1-4.81348-6.57031,12.17006,12.17006,0,0,1,2.08887-9.34278A11.81677,11.81677,0,0,1,274.85938,279.87793Zm.35937,5.74805a4.70638,4.70638,0,0,0-3.23145,2.56006,6.59574,6.59574,0,0,0-.86328,4.54443q.542,3.0703,3.98047,2.46191a3.94853,3.94853,0,0,0,2.877-1.78906,6.94365,6.94365,0,0,0,.97753-4.97266,3.45186,3.45186,0,0,0-1.30175-2.28027A3.03067,3.03067,0,0,0,275.21875,285.626Z" style="fill:#7f8c8d"/><path d="M292.74609,283.08008l-.50781,2.38086q-.69433,3.17871-2.65234,3.52295a2.90277,2.90277,0,0,1-2.11035-.36426,2.32322,2.32322,0,0,1-1.10547-1.63233,6.73171,6.73171,0,0,1,.21777-2.167l1.68848-7.9082q.61377-2.863,2.59765-3.21289a2.26628,2.26628,0,0,1,2.73438,1.42676l.35547.7832q.271.60645.61621.71a4.55836,4.55836,0,0,0,1.58887-.11621l6.1914-1.09131q3.46436-.61156,3.89453,1.82129.59179,3.36182-3.7998,4.13477l-.24414.31591q-3.49659,4.76441-3.11035,6.95948.38818,2.19579,2.82129,1.76611l3.334-.58789q3.35889-.59179,3.77051,1.73584a3.06152,3.06152,0,0,1-.72949,2.74756,5.40431,5.40431,0,0,1-3.13575,1.48047l-5.18554.91406a5.69451,5.69451,0,0,1-4.64649-1.0625,6.81723,6.81723,0,0,1-2.51562-4.439,7.89324,7.89324,0,0,1,.26465-3.75634,22.471,22.471,0,0,1,2.41894-4.84668Z" style="fill:#7f8c8d"/><path d="M324.96191,280.75537l5.23438,5.70459a3.99893,3.99893,0,0,1,1.1123,1.82275,3.03332,3.03332,0,0,1-.63183,2.376,3.27194,3.27194,0,0,1-2.11524,1.38184,2.37344,2.37344,0,0,1-2.1416-.84961l-.40137-.41944-7.75683-8.09863-1.6709,7.85059q-.80859,3.772-3.55957,4.25586a2.80718,2.80718,0,0,1-2.042-.36328,2.2401,2.2401,0,0,1-1.08106-1.56836,4.70838,4.70838,0,0,1,.11133-1.84717l.16406-.76514,6.40235-29.90869.165-.76514q.69286-3.178,3.36621-3.64843a2.73554,2.73554,0,0,1,2.03515.40429,2.377,2.377,0,0,1,1.10645,1.63233,4.9885,4.9885,0,0,1-.10059,1.90088l-.166.76513-3.81641,17.80371,5.17383-5.46728a5.793,5.793,0,0,1,2.93164-1.93506,2.60378,2.60378,0,0,1,1.97852.38721,2.4,2.4,0,0,1,1.05273,1.64209,4.13823,4.13823,0,0,1-1.3877,3.57373l-.53027.55566Z" style="fill:#7f8c8d"/><path d="M338.80176,282.979a3.76164,3.76164,0,1,1-2.42774,1.54688A3.59653,3.59653,0,0,1,338.80176,282.979Zm8.13281-23.33886-3.02734,16.71045q-.77345,4.28319-2.83594,4.64648a2.43007,2.43007,0,0,1-1.88672-.41748,2.46219,2.46219,0,0,1-1.043-1.65771,6.86323,6.86323,0,0,1-.01172-1.77l1.8086-18.97852q.35595-3.55444,3.13281-4.04443a3.49587,3.49587,0,0,1,2.62891.51953,3.12795,3.12795,0,0,1,1.415,2.14941A8.88952,8.88952,0,0,1,346.93457,259.64014Z" style="fill:#7f8c8d"/><path d="M171.3291,219.45215l-5.38672,25.145,3.57129-.62988q3.6504-.6438,4.1084,1.94921a3.32071,3.32071,0,0,1-.80078,2.96436,5.82734,5.82734,0,0,1-3.40918,1.624l-4.94824.87256-1.07227,5.209q-1.80468,8.63745-4.71191,12.57373a12.32792,12.32792,0,0,1-8.11914,4.856,11.383,11.383,0,0,1-13.501-9.43164,12.72326,12.72326,0,0,1,.74512-7.14258,15.166,15.166,0,0,1,4.59472-6.04736q4.08106-3.30981,12.07032-4.71973l4.19726-.79492.51172-2.35351a7.04551,7.04551,0,0,1-2.97363,1.23291,8.92086,8.92086,0,0,1-6.63672-1.20313,7.69435,7.69435,0,0,1-3.49512-5.35693,17.83983,17.83983,0,0,1,.28418-5.50635l.30664-1.66308.28028-1.6587a8.5745,8.5745,0,0,0,.11914-2.88671,2.75186,2.75186,0,0,0-1.49414-1.97266,4.1753,4.1753,0,0,0-2.83106-.42822,6.28321,6.28321,0,0,0-4.23242,3.147,7.58168,7.58168,0,0,0-1.20313,5.47607,4.0141,4.0141,0,0,0,1.15625,2.375,5.84215,5.84215,0,0,0,2.82129,1.15284,2.58033,2.58033,0,0,1,2.334,2.09765,3.26641,3.26641,0,0,1-.69434,2.71436,4.18548,4.18548,0,0,1-2.65332,1.50488,7.3576,7.3576,0,0,1-6.22168-1.79443,10.30338,10.30338,0,0,1-3.5625-6.35645,13.9145,13.9145,0,0,1,2.57715-10.8335,14.23182,14.23182,0,0,1,9.41406-6.09277,10.44077,10.44077,0,0,1,7.68457,1.34473,8.72638,8.72638,0,0,1,4.02344,6.11133,10.82471,10.82471,0,0,1-.00879,3.8208l-.53711,2.98584a12.79207,12.79207,0,0,0-.32031,3.90283,2.841,2.841,0,0,0,1.29785,1.95312,3.16859,3.16859,0,0,0,2.37695.481,4.44471,4.44471,0,0,0,3.01563-1.92334,15.35411,15.35411,0,0,0,1.86816-5.18359l2.88575-13.49414a4.52418,4.52418,0,0,1,4.29-4.13965l6.24317-1.10108q3.65186-.6438,4.08984,1.84375a3.441,3.441,0,0,1-.78418,3.05616,5.812,5.812,0,0,1-3.43359,1.64355Zm-14.11426,33.20361a26.98131,26.98131,0,0,0-8.332,2.55957,10.06138,10.06138,0,0,0-3.85449,3.58594,6.19794,6.19794,0,0,0-.85937,4.33936,4.94956,4.94956,0,0,0,1.97851,3.252,4.48315,4.48315,0,0,0,3.57227.8418,5.87063,5.87063,0,0,0,3.97461-2.90967,24.22574,24.22574,0,0,0,2.65332-7.61524Z" style="fill:#ecf0f1"/><path d="M187.3125,226.09863a8.75689,8.75689,0,0,1,6.73926,1.3208,8.44669,8.44669,0,0,1,3.56543,5.7544,13.42612,13.42612,0,0,1-.30567,5.85156,12.39967,12.39967,0,0,1-2.57324,5.04981,8.25789,8.25789,0,0,1-2.58105,1.99707,16.30416,16.30416,0,0,1-4.041,1.13476q-4.3125.76026-6.00195-.00586a8.28735,8.28735,0,0,1-4.81446-6.57031,12.16813,12.16813,0,0,1,2.08985-9.34326A11.81377,11.81377,0,0,1,187.3125,226.09863Zm.35938,5.74756a4.70582,4.70582,0,0,0-3.23145,2.56055,6.5957,6.5957,0,0,0-.86328,4.54443q.542,3.07032,3.98047,2.46192a3.94993,3.94993,0,0,0,2.877-1.78907,6.94457,6.94457,0,0,0,.97754-4.97265,3.45075,3.45075,0,0,0-1.30176-2.28028A3.03186,3.03186,0,0,0,187.67188,231.84619Z" style="fill:#ecf0f1"/><path d="M218.7666,235.85547l3.07031-.541a4.70536,4.70536,0,0,1,2.6875.08594,2.06464,2.06464,0,0,1,1.082,1.64941,3.07105,3.07105,0,0,1-.73145,2.73536,5.34961,5.34961,0,0,1-3.13281,1.49267l-4.73633.835a2.94458,2.94458,0,0,1-3.26563-1.19726,4.65867,4.65867,0,0,1-3.34863,2.36377l-3.8623.68115a5.47323,5.47323,0,0,1-4.11914-.77393,4.92512,4.92512,0,0,1-2.18262-3.40722,8.17568,8.17568,0,0,1,.165-3.08448l2.04-9.47021q.85986-3.9441,3.47851-4.40527a2.80329,2.80329,0,0,1,2.06055.38671,2.36608,2.36608,0,0,1,1.10742,1.64649,4.96329,4.96329,0,0,1-.10156,1.89941l-.16406.7666-1.5791,7.28711-.15137.84668a4.61471,4.61471,0,0,0-.082,1.07862q.15673,1.199,1.74414.91992,3.27978-.57788,3.89843-3.415l1.87012-8.73291q.82911-3.96533,3.52735-4.43994a2.73863,2.73863,0,0,1,2.03515.4043,2.376,2.376,0,0,1,1.10645,1.63232,7.94371,7.94371,0,0,1-.24024,2.66162Z" style="fill:#ecf0f1"/><path d="M231.25879,224.70557l-.50781,2.38086q-.69433,3.178-2.65235,3.52295a2.9019,2.9019,0,0,1-2.11035-.36426,2.32428,2.32428,0,0,1-1.10547-1.63233,6.76087,6.76087,0,0,1,.21778-2.167l1.6875-7.9082q.61377-2.863,2.59765-3.21289a2.26518,2.26518,0,0,1,2.73438,1.42724l.35644.78272q.271.60644.61621.71a4.56638,4.56638,0,0,0,1.58887-.11572l6.19141-1.0918q3.46435-.61085,3.89453,1.82129.59327,3.36182-3.79883,4.13476l-.24512.31592q-3.49658,4.76441-3.10937,6.95947.38672,2.1958,2.82031,1.76661l3.334-.58789q3.35889-.59253,3.77051,1.73535a3.06009,3.06009,0,0,1-.72949,2.748,5.40392,5.40392,0,0,1-3.13574,1.48l-5.18555.91456a5.70284,5.70284,0,0,1-4.64746-1.0625,6.82268,6.82268,0,0,1-2.51465-4.43946,7.87933,7.87933,0,0,1,.26563-3.75586,22.41627,22.41627,0,0,1,2.41894-4.84717Z" style="fill:#ecf0f1"/><path d="M280.43262,220.78223l4.78906-9.19287.3916-.72364a4.44581,4.44581,0,0,1,3.0791-2.64306,2.6717,2.6717,0,0,1,2.09571.43457,2.742,2.742,0,0,1,1.11523,1.83545,6.0925,6.0925,0,0,1-1.03516,3.56494l-7.71972,14.23779q-1.5249,2.80444-3.61426,3.17383a3.85989,3.85989,0,0,1-3.13867-.78272,4.59478,4.59478,0,0,1-1.75-2.96484,6.488,6.488,0,0,1-.09375-.99365l.03418-4.91455-4.03028,8.70215q-1.25976,2.75829-3.32324,3.12255a3.66557,3.66557,0,0,1-3.15234-.86181,5.46146,5.46146,0,0,1-1.7627-3.34522,4.23931,4.23931,0,0,1-.06738-.53369l-1.21387-11.21582a5.75438,5.75438,0,0,1,.54395-3.49219,3.30372,3.30372,0,0,1,2.42871-1.61474q2.4873-.438,2.96777,2.28711.07911.4497.125,1.01416l.56446,7.53906,4.41211-9.481q1.40186-3.02929,3.88964-3.46777a3.3982,3.3982,0,0,1,2.58789.44385,3.18143,3.18143,0,0,1,1.31446,2.19677c.07129.40528.11523.70557.13183.90332Z" style="fill:#ecf0f1"/><path d="M310.72852,219.64014l2.91113-.51319q3.33252-.5874,3.74316,1.74024a3.05431,3.05431,0,0,1-.74511,2.7373,5.35188,5.35188,0,0,1-3.12012,1.49072l-3.38574.59717a3.13708,3.13708,0,0,1-3.40821-1.22656,5.97771,5.97771,0,0,1-3.52343,2.44873l-3.01563.53174a5.98529,5.98529,0,0,1-5.0625-1.24805,8.17077,8.17077,0,0,1-2.74414-5.123,13.63083,13.63083,0,0,1,1.90332-9.70557q2.79784-4.62452,7.21582-5.40527a5.59427,5.59427,0,0,1,5.36328,1.48242,4.06711,4.06711,0,0,1,3.11524-2.59473,2.759,2.759,0,0,1,2.07519.39746,2.45181,2.45181,0,0,1,1.10254,1.6875,4.88778,4.88778,0,0,1-.11035,1.84717l-.165.76611Zm-9.58008,1.82617.66113-.1167a2.84483,2.84483,0,0,0,2.57129-2.28174l1.04492-4.90381a4.18953,4.18953,0,0,0,.10449-1.57324,1.55952,1.55952,0,0,0-.91992-1.11914,2.74967,2.74967,0,0,0-1.77344-.2334q-1.93066.34057-3.36035,2.9126a7.4301,7.4301,0,0,0-1.00488,4.977Q298.95214,221.85255,301.14844,221.46631Z" style="fill:#ecf0f1"/><path d="M334.292,222.55078l3.06934-.541q3.36034-.59253,3.77441,1.76171a3.0287,3.0287,0,0,1-.7334,2.72168,5.40389,5.40389,0,0,1-3.13574,1.48l-4.28515.75586a43.43269,43.43269,0,0,1-1.71387,6.522q-2.32764,7.22754-8.99317,8.40429a9.792,9.792,0,0,1-7.248-1.34082,8.35049,8.35049,0,0,1-3.86133-5.81054,8.81512,8.81512,0,0,1,.63476-5.14453,9.54324,9.54324,0,0,1,3.32911-4.09327q2.57519-1.79076,8.05175-2.75586l4.3125-.76074.43164-2.04053a9.5323,9.5323,0,0,1-3.4541,1.45508,7.11462,7.11462,0,0,1-4.84472-.63232,4.68668,4.68668,0,0,1-2.419-3.43408,12.79117,12.79117,0,0,1,.39551-4.40723l1.62891-7.625.16113-.7915q.74268-3.21313,3.415-3.68409a2.76172,2.76172,0,0,1,2.07519.39746,2.518,2.518,0,0,1,1.11133,1.74024,7.96811,7.96811,0,0,1-.249,2.6084l-1.47852,6.77929a9.05107,9.05107,0,0,0-.28515,2.09766q.1494,1.30884,1.86914,1.00635a5.14619,5.14619,0,0,0,2.36132-1.15235A3.43146,3.43146,0,0,0,329.541,214.168l2.01953-9.27637.13379-.78711q.71631-3.20874,3.415-3.68408a2.72763,2.72763,0,0,1,2.07714.41113,2.52518,2.52518,0,0,1,1.10938,1.72657,4.98308,4.98308,0,0,1-.084,1.84228l-.1914.771Zm-7.63379,7.293-3.70312.65332q-6.08643,1.07226-5.41406,4.88232a2.95026,2.95026,0,0,0,1.21582,2.022,3.09637,3.09637,0,0,0,2.38086.42627,4.77213,4.77213,0,0,0,3.16015-2.11182A20.50927,20.50927,0,0,0,326.6582,229.84375Z" style="fill:#ecf0f1"/><path d="M191.80566,292.729l.81934-.14453q3.36034-.59253,3.77539,1.76221a3.01365,3.01365,0,0,1-.74707,2.72266,5.41555,5.41555,0,0,1-3.12207,1.47851l-1.93164.34082-2.00977,9.32813,2.96289-.52246q3.35889-.59253,3.77442,1.7622a3.02774,3.02774,0,0,1-.7334,2.72119,5.40392,5.40392,0,0,1-3.13574,1.48l-4.73535.83545a5.10258,5.10258,0,0,1-3.35157-.36377,3.07418,3.07418,0,0,1-1.62011-2.30615,5.9817,5.9817,0,0,1,.09375-2.25293l.29785-1.25293,1.76367-8.24853-.39648.06982q-2.96339.52294-3.37012-1.78027a3.091,3.091,0,0,1,.72851-2.76026A5.34069,5.34069,0,0,1,184,294.10547l1.21777-.21484.791-3.7129.16406-.76611q.72657-3.156,3.39844-3.627a2.68208,2.68208,0,0,1,1.99414.39844,2.35818,2.35818,0,0,1,1.08984,1.62158,6.6394,6.6394,0,0,1-.24023,2.66113Z" style="fill:#ecf0f1"/><path d="M207.05762,289.65723a8.75475,8.75475,0,0,1,6.73926,1.3208,8.45339,8.45339,0,0,1,3.56542,5.75439,13.45578,13.45578,0,0,1-.30566,5.85156,12.39775,12.39775,0,0,1-2.57324,5.04932,8.25966,8.25966,0,0,1-2.58106,1.99756,16.32541,16.32541,0,0,1-4.041,1.13477q-4.3125.76025-6.00293-.00586a8.287,8.287,0,0,1-4.81348-6.57032,12.16813,12.16813,0,0,1,2.08985-9.34326A11.812,11.812,0,0,1,207.05762,289.65723Zm.35937,5.74756a4.70581,4.70581,0,0,0-3.23144,2.56054,6.58926,6.58926,0,0,0-.86231,4.54444q.54053,3.07031,3.97949,2.46191a3.94808,3.94808,0,0,0,2.877-1.78906,6.94371,6.94371,0,0,0,.97754-4.97266,3.45305,3.45305,0,0,0-1.30176-2.28076A3.03432,3.03432,0,0,0,207.417,295.40479Z" style="fill:#ecf0f1"/><path d="M252.001,292.83594l4.78906-9.19336.3916-.72315a4.44543,4.44543,0,0,1,3.0791-2.64355,2.67188,2.67188,0,0,1,2.09571.43506,2.741,2.741,0,0,1,1.11523,1.83545,6.08866,6.08866,0,0,1-1.03613,3.56494l-7.71875,14.2373q-1.5249,2.80518-3.61426,3.17383a3.85988,3.85988,0,0,1-3.13867-.78271,4.59354,4.59354,0,0,1-1.75-2.96485,6.24763,6.24763,0,0,1-.09375-.99365l.03418-4.91455-4.03125,8.70264q-1.25831,2.75829-3.32227,3.12207a3.66148,3.66148,0,0,1-3.15234-.86133,5.46585,5.46585,0,0,1-1.76367-3.3457,4.40073,4.40073,0,0,1-.06641-.5337l-1.21387-11.21582a5.7433,5.7433,0,0,1,.54395-3.49121,3.30346,3.30346,0,0,1,2.42871-1.61572q2.4873-.438,2.96777,2.28711c.05274.2998.09473.63818.124,1.01465l.56543,7.53857,4.41113-9.48047q1.40331-3.03,3.88965-3.46826a3.402,3.402,0,0,1,2.58886.44385,3.18484,3.18484,0,0,1,1.31446,2.19678c.07129.40527.11523.707.13183.90332Z" style="fill:#ecf0f1"/><path d="M273.85938,277.87793a8.757,8.757,0,0,1,6.73925,1.32129,8.45132,8.45132,0,0,1,3.56543,5.75391,13.441,13.441,0,0,1-.30566,5.85156,12.41184,12.41184,0,0,1-2.57324,5.0498,8.26679,8.26679,0,0,1-2.58106,1.99756,16.328,16.328,0,0,1-4.041,1.13428q-4.3125.761-6.00293-.00586a8.2863,8.2863,0,0,1-4.81348-6.57031,12.17006,12.17006,0,0,1,2.08887-9.34278A11.81677,11.81677,0,0,1,273.85938,277.87793Zm.35937,5.74805a4.70638,4.70638,0,0,0-3.23145,2.56006,6.59574,6.59574,0,0,0-.86328,4.54443q.542,3.0703,3.98047,2.46191a3.94853,3.94853,0,0,0,2.877-1.78906,6.94365,6.94365,0,0,0,.97753-4.97266,3.45186,3.45186,0,0,0-1.30175-2.28027A3.03067,3.03067,0,0,0,274.21875,283.626Z" style="fill:#ecf0f1"/><path d="M291.74609,281.08008l-.50781,2.38086q-.69433,3.17871-2.65234,3.52295a2.90277,2.90277,0,0,1-2.11035-.36426,2.32322,2.32322,0,0,1-1.10547-1.63233,6.73171,6.73171,0,0,1,.21777-2.167l1.68848-7.9082q.61377-2.863,2.59765-3.21289a2.26628,2.26628,0,0,1,2.73438,1.42676l.35547.7832q.271.60645.61621.71a4.55836,4.55836,0,0,0,1.58887-.11621l6.1914-1.09131q3.46436-.61156,3.89453,1.82129.59179,3.36182-3.7998,4.13477l-.24414.31591q-3.49659,4.76441-3.11035,6.95948.38818,2.19579,2.82129,1.76611l3.334-.58789q3.35889-.59179,3.77051,1.73584a3.06152,3.06152,0,0,1-.72949,2.74756,5.40431,5.40431,0,0,1-3.13575,1.48047l-5.18554.91406a5.69451,5.69451,0,0,1-4.64649-1.0625,6.81723,6.81723,0,0,1-2.51562-4.439,7.89324,7.89324,0,0,1,.26465-3.75634,22.471,22.471,0,0,1,2.41894-4.84668Z" style="fill:#ecf0f1"/><path d="M323.96191,278.75537l5.23438,5.70459a3.99893,3.99893,0,0,1,1.1123,1.82275,3.03332,3.03332,0,0,1-.63183,2.376,3.27194,3.27194,0,0,1-2.11524,1.38184,2.37344,2.37344,0,0,1-2.1416-.84961l-.40137-.41944-7.75683-8.09863-1.6709,7.85059q-.80859,3.772-3.55957,4.25586a2.80718,2.80718,0,0,1-2.042-.36328,2.2401,2.2401,0,0,1-1.08106-1.56836,4.70838,4.70838,0,0,1,.11133-1.84717l.16406-.76514,6.40235-29.90869.165-.76514q.69286-3.178,3.36621-3.64843a2.73554,2.73554,0,0,1,2.03515.40429,2.377,2.377,0,0,1,1.10645,1.63233,4.9885,4.9885,0,0,1-.10059,1.90088l-.166.76513-3.81641,17.80371,5.17383-5.46728a5.793,5.793,0,0,1,2.93164-1.93506,2.60378,2.60378,0,0,1,1.97852.38721,2.4,2.4,0,0,1,1.05273,1.64209,4.13823,4.13823,0,0,1-1.3877,3.57373l-.53027.55566Z" style="fill:#ecf0f1"/><path d="M337.80176,280.979a3.76164,3.76164,0,1,1-2.42774,1.54688A3.59653,3.59653,0,0,1,337.80176,280.979Zm8.13281-23.33886-3.02734,16.71045q-.77345,4.28319-2.83594,4.64648a2.43007,2.43007,0,0,1-1.88672-.41748,2.46219,2.46219,0,0,1-1.043-1.65771,6.86323,6.86323,0,0,1-.01172-1.77l1.8086-18.97852q.35595-3.55444,3.13281-4.04443a3.49587,3.49587,0,0,1,2.62891.51953,3.12795,3.12795,0,0,1,1.415,2.14941A8.88952,8.88952,0,0,1,345.93457,257.64014Z" style="fill:#ecf0f1"/></svg>